<?xml version="1.0" encoding="UTF-8"?>
<!DOCTYPE svg PUBLIC "-//W3C//DTD SVG 1.1//EN" "http://www.w3.org/Graphics/SVG/1.1/DTD/svg11.dtd">
<svg xmlns="http://www.w3.org/2000/svg" version="1.1" width="747px" height="660px" style="shape-rendering:geometricPrecision; text-rendering:geometricPrecision; image-rendering:optimizeQuality; fill-rule:evenodd; clip-rule:evenodd" xmlns:xlink="http://www.w3.org/1999/xlink">
<g><path style="opacity:0.878" fill="#f3bf6e" d="M 290.5,169.5 C 289.5,169.5 288.5,169.5 287.5,169.5C 282.653,168.381 277.653,168.381 272.5,169.5C 272.611,168.883 272.944,168.383 273.5,168C 276.333,167.833 279.167,167.667 282,167.5C 285.252,167.519 288.085,168.186 290.5,169.5 Z"/></g>
<g><path style="opacity:0.051" fill="#fce0c7" d="M 292.5,169.5 C 294.027,169.427 295.027,170.094 295.5,171.5C 293.973,171.573 292.973,170.906 292.5,169.5 Z"/></g>
<g><path style="opacity:1" fill="#eabb80" d="M 271.5,169.5 C 271.167,170.167 270.833,170.833 270.5,171.5C 269.533,172.806 268.199,173.473 266.5,173.5C 267.265,171.071 268.931,169.738 271.5,169.5 Z"/></g>
<g><path style="opacity:1" fill="#eb8c1f" d="M 331.5,231.5 C 329.508,231.328 327.842,231.995 326.5,233.5C 323.788,231.74 320.788,231.073 317.5,231.5C 317.146,229.459 317.146,227.626 317.5,226C 316.234,225.691 315.067,225.191 314,224.5C 311.205,225.783 308.372,225.783 305.5,224.5C 307.5,223.833 309.5,223.167 311.5,222.5C 311.333,222.167 311.167,221.833 311,221.5C 306.201,217.562 301.368,213.562 296.5,209.5C 292.937,203.748 288.437,198.748 283,194.5C 280.755,191.026 278.255,187.693 275.5,184.5C 273.604,183.534 271.604,183.201 269.5,183.5C 269.16,180.856 269.827,178.523 271.5,176.5C 269.993,175.261 268.826,175.595 268,177.5C 267.209,176.255 266.709,174.922 266.5,173.5C 268.199,173.473 269.533,172.806 270.5,171.5C 274.068,170.898 277.734,171.231 281.5,172.5C 279.034,173.123 276.701,173.957 274.5,175C 279.946,178.937 285.279,183.104 290.5,187.5C 292.265,190.231 293.932,192.898 295.5,195.5C 298.167,196.833 300.833,198.167 303.5,199.5C 303.281,200.675 303.614,201.675 304.5,202.5C 312.333,209.597 319.999,216.931 327.5,224.5C 327.167,225.167 326.833,225.833 326.5,226.5C 328.045,227.452 329.712,227.785 331.5,227.5C 331.5,228.833 331.5,230.167 331.5,231.5 Z"/></g>
<g><path style="opacity:1" fill="#eba946" d="M 296.5,171.5 C 300.817,173.934 304.817,176.6 308.5,179.5C 302.099,180.432 298.099,177.765 296.5,171.5 Z"/></g>
<g><path style="opacity:1" fill="#ec9320" d="M 287.5,169.5 C 286.993,170.859 285.993,171.859 284.5,172.5C 286.167,173.167 287.833,173.833 289.5,174.5C 288.833,175.167 288.167,175.833 287.5,176.5C 290.388,178.563 293.388,180.397 296.5,182C 295.978,182.561 295.645,183.228 295.5,184C 297.851,186.019 299.851,188.352 301.5,191C 304.594,189.907 307.927,189.407 311.5,189.5C 312.879,195.874 316.879,199.541 323.5,200.5C 322.311,201.429 320.978,201.762 319.5,201.5C 319.5,202.833 319.5,204.167 319.5,205.5C 322.247,205.187 324.914,205.52 327.5,206.5C 326.311,207.429 324.978,207.762 323.5,207.5C 323.238,208.978 323.571,210.311 324.5,211.5C 327.891,214.519 331.558,217.019 335.5,219C 338.059,223.591 341.059,227.757 344.5,231.5C 348.676,232.669 351.009,235.336 351.5,239.5C 356.944,239.461 362.277,240.127 367.5,241.5C 367.5,244.833 367.5,248.167 367.5,251.5C 371.5,251.5 373.5,253.5 373.5,257.5C 375.924,257.192 378.257,257.526 380.5,258.5C 378.205,259.136 376.539,260.469 375.5,262.5C 378.674,264.225 382.007,265.558 385.5,266.5C 387.058,268.956 389.058,270.956 391.5,272.5C 390.873,273.417 390.539,274.417 390.5,275.5C 390.167,275.5 389.833,275.5 389.5,275.5C 384.523,273.346 379.856,270.679 375.5,267.5C 375.027,266.094 374.027,265.427 372.5,265.5C 372.167,265.5 371.833,265.5 371.5,265.5C 371.027,264.094 370.027,263.427 368.5,263.5C 368.167,263.5 367.833,263.5 367.5,263.5C 367.5,262.167 366.833,261.5 365.5,261.5C 365.167,261.5 364.833,261.5 364.5,261.5C 364.027,260.094 363.027,259.427 361.5,259.5C 361.027,258.094 360.027,257.427 358.5,257.5C 358.167,257.5 357.833,257.5 357.5,257.5C 357.027,256.094 356.027,255.427 354.5,255.5C 351.784,254.799 349.45,253.465 347.5,251.5C 347.027,250.094 346.027,249.427 344.5,249.5C 344.167,249.5 343.833,249.5 343.5,249.5C 343.5,248.167 342.833,247.5 341.5,247.5C 341.167,247.5 340.833,247.5 340.5,247.5C 340.027,246.094 339.027,245.427 337.5,245.5C 337.027,244.094 336.027,243.427 334.5,243.5C 331.535,242.684 328.869,241.351 326.5,239.5C 326.167,238.833 325.833,238.167 325.5,237.5C 327.282,236.28 329.282,235.614 331.5,235.5C 331.5,234.167 331.5,232.833 331.5,231.5C 331.5,230.167 331.5,228.833 331.5,227.5C 329.712,227.785 328.045,227.452 326.5,226.5C 326.833,225.833 327.167,225.167 327.5,224.5C 319.999,216.931 312.333,209.597 304.5,202.5C 303.614,201.675 303.281,200.675 303.5,199.5C 300.833,198.167 298.167,196.833 295.5,195.5C 293.932,192.898 292.265,190.231 290.5,187.5C 285.279,183.104 279.946,178.937 274.5,175C 276.701,173.957 279.034,173.123 281.5,172.5C 277.734,171.231 274.068,170.898 270.5,171.5C 270.833,170.833 271.167,170.167 271.5,169.5C 271.833,169.5 272.167,169.5 272.5,169.5C 277.653,168.381 282.653,168.381 287.5,169.5 Z"/></g>
<g><path style="opacity:1" fill="#e9b37a" d="M 263.5,175.5 C 262.169,178.829 260.836,182.162 259.5,185.5C 258.833,186.167 258.167,186.833 257.5,187.5C 258.413,183.766 259.747,180.1 261.5,176.5C 261.957,175.702 262.624,175.369 263.5,175.5 Z"/></g>
<g><path style="opacity:1" fill="#ea8722" d="M 266.5,173.5 C 266.709,174.922 267.209,176.255 268,177.5C 268.826,175.595 269.993,175.261 271.5,176.5C 269.827,178.523 269.16,180.856 269.5,183.5C 271.604,183.201 273.604,183.534 275.5,184.5C 278.255,187.693 280.755,191.026 283,194.5C 288.437,198.748 292.937,203.748 296.5,209.5C 301.368,213.562 306.201,217.562 311,221.5C 311.167,221.833 311.333,222.167 311.5,222.5C 309.5,223.167 307.5,223.833 305.5,224.5C 308.372,225.783 311.205,225.783 314,224.5C 315.067,225.191 316.234,225.691 317.5,226C 317.146,227.626 317.146,229.459 317.5,231.5C 320.788,231.073 323.788,231.74 326.5,233.5C 327.842,231.995 329.508,231.328 331.5,231.5C 331.5,232.833 331.5,234.167 331.5,235.5C 329.282,235.614 327.282,236.28 325.5,237.5C 324.221,236.032 322.554,235.365 320.5,235.5C 320.167,235.5 319.833,235.5 319.5,235.5C 319.179,233.952 318.179,233.285 316.5,233.5C 316.027,232.094 315.027,231.427 313.5,231.5C 313.167,231.5 312.833,231.5 312.5,231.5C 310.05,227.362 307.05,226.695 303.5,229.5C 302.5,230.167 301.5,230.833 300.5,231.5C 299.833,231.5 299.167,231.5 298.5,231.5C 298.5,230.833 298.5,230.167 298.5,229.5C 298.659,228.093 299.325,226.426 300.5,224.5C 298.242,224.758 295.909,224.758 293.5,224.5C 294.311,223.784 294.978,222.95 295.5,222C 293.21,219.194 290.544,217.028 287.5,215.5C 285.833,211.833 283.167,209.167 279.5,207.5C 279.719,206.325 279.386,205.325 278.5,204.5C 273.265,200.65 270.265,195.65 269.5,189.5C 266.342,190.876 263.009,191.542 259.5,191.5C 259.5,189.5 259.5,187.5 259.5,185.5C 260.836,182.162 262.169,178.829 263.5,175.5C 263.821,173.952 264.821,173.285 266.5,173.5 Z"/></g>
<g><path style="opacity:0.161" fill="#f7e1aa" d="M 316.5,183.5 C 318.027,183.427 319.027,184.094 319.5,185.5C 317.973,185.573 316.973,184.906 316.5,183.5 Z"/></g>
<g><path style="opacity:0.129" fill="#f8e9b2" d="M 323.5,187.5 C 325.027,187.427 326.027,188.094 326.5,189.5C 326.167,189.5 325.833,189.5 325.5,189.5C 324.5,189.167 323.833,188.5 323.5,187.5 Z"/></g>
<g><path style="opacity:0.059" fill="#f4f3c3" d="M 337.5,195.5 C 339.179,195.285 340.179,195.952 340.5,197.5C 338.973,197.573 337.973,196.906 337.5,195.5 Z"/></g>
<g><path style="opacity:1" fill="#e88023" d="M 259.5,185.5 C 259.5,187.5 259.5,189.5 259.5,191.5C 263.009,191.542 266.342,190.876 269.5,189.5C 270.265,195.65 273.265,200.65 278.5,204.5C 279.386,205.325 279.719,206.325 279.5,207.5C 283.167,209.167 285.833,211.833 287.5,215.5C 290.544,217.028 293.21,219.194 295.5,222C 294.978,222.95 294.311,223.784 293.5,224.5C 295.909,224.758 298.242,224.758 300.5,224.5C 299.325,226.426 298.659,228.093 298.5,229.5C 297.221,228.032 295.554,227.365 293.5,227.5C 293.5,230.833 293.5,234.167 293.5,237.5C 292.167,237.5 290.833,237.5 289.5,237.5C 289.5,234.167 289.5,230.833 289.5,227.5C 287.5,227.5 285.5,227.5 283.5,227.5C 283.33,226.178 283.663,225.011 284.5,224C 279.975,220.308 275.308,216.808 270.5,213.5C 269.167,205.5 267.833,205.5 266.5,213.5C 265.167,209.5 263.833,205.5 262.5,201.5C 261.575,202.641 260.741,202.641 260,201.5C 259.667,200.167 259.333,198.833 259,197.5C 258.821,201.025 258.321,204.359 257.5,207.5C 257.5,200.833 257.5,194.167 257.5,187.5C 258.167,186.833 258.833,186.167 259.5,185.5 Z"/></g>
<g><path style="opacity:0.322" fill="#eacc9a" d="M 344.5,199.5 C 345.833,199.5 346.5,200.167 346.5,201.5C 346.5,200.167 345.833,199.5 344.5,199.5 Z"/></g>
<g><path style="opacity:0.251" fill="#edd2b4" d="M 351.5,203.5 C 353.027,203.427 354.027,204.094 354.5,205.5C 352.821,205.715 351.821,205.048 351.5,203.5 Z"/></g>
<g><path style="opacity:0.11" fill="#f9f1bc" d="M 358.5,207.5 C 360.027,207.427 361.027,208.094 361.5,209.5C 359.973,209.573 358.973,208.906 358.5,207.5 Z"/></g>
<g><path style="opacity:0.463" fill="#eaca92" d="M 361.5,209.5 C 363.027,209.427 364.027,210.094 364.5,211.5C 362.821,211.715 361.821,211.048 361.5,209.5 Z"/></g>
<g><path style="opacity:1" fill="#ed991d" d="M 287.5,169.5 C 288.5,169.5 289.5,169.5 290.5,169.5C 291.167,169.5 291.833,169.5 292.5,169.5C 292.973,170.906 293.973,171.573 295.5,171.5C 295.833,171.5 296.167,171.5 296.5,171.5C 298.099,177.765 302.099,180.432 308.5,179.5C 311.69,179.853 314.356,181.186 316.5,183.5C 316.973,184.906 317.973,185.573 319.5,185.5C 321.199,185.527 322.533,186.194 323.5,187.5C 323.833,188.5 324.5,189.167 325.5,189.5C 325.5,190.833 325.5,192.167 325.5,193.5C 329.119,193.044 331.452,194.544 332.5,198C 329.945,199.258 329.278,201.091 330.5,203.5C 331.328,202.585 332.328,201.919 333.5,201.5C 335.745,203.76 338.411,205.094 341.5,205.5C 341.389,211.622 344.055,215.955 349.5,218.5C 354.249,222.578 358.249,227.245 361.5,232.5C 365.351,233.345 367.351,235.678 367.5,239.5C 372.133,241.501 376.133,244.501 379.5,248.5C 380.689,249.429 382.022,249.762 383.5,249.5C 383.5,251.5 383.5,253.5 383.5,255.5C 385.199,255.34 386.866,255.506 388.5,256C 390.838,260.847 394.505,264.013 399.5,265.5C 399.649,269.322 401.649,271.655 405.5,272.5C 404.5,273.167 403.5,273.833 402.5,274.5C 404.684,276.092 407.018,277.426 409.5,278.5C 407.833,280.167 408.167,281.167 410.5,281.5C 411.949,280.72 413.449,280.054 415,279.5C 417.944,281.603 420.778,283.936 423.5,286.5C 420.731,288.339 420.065,290.672 421.5,293.5C 420.833,293.5 420.167,293.5 419.5,293.5C 419.167,292.5 418.5,291.833 417.5,291.5C 417.167,291.5 416.833,291.5 416.5,291.5C 415.522,288.675 413.522,287.342 410.5,287.5C 408.801,287.473 407.467,286.806 406.5,285.5C 406.027,284.094 405.027,283.427 403.5,283.5C 403.167,283.5 402.833,283.5 402.5,283.5C 402.027,282.094 401.027,281.427 399.5,281.5C 397.938,281.267 396.605,280.6 395.5,279.5C 395.5,278.167 394.833,277.5 393.5,277.5C 393.167,277.5 392.833,277.5 392.5,277.5C 392.167,276.5 391.5,275.833 390.5,275.5C 390.539,274.417 390.873,273.417 391.5,272.5C 389.058,270.956 387.058,268.956 385.5,266.5C 382.007,265.558 378.674,264.225 375.5,262.5C 376.539,260.469 378.205,259.136 380.5,258.5C 378.257,257.526 375.924,257.192 373.5,257.5C 373.5,253.5 371.5,251.5 367.5,251.5C 367.5,248.167 367.5,244.833 367.5,241.5C 362.277,240.127 356.944,239.461 351.5,239.5C 351.009,235.336 348.676,232.669 344.5,231.5C 341.059,227.757 338.059,223.591 335.5,219C 331.558,217.019 327.891,214.519 324.5,211.5C 323.571,210.311 323.238,208.978 323.5,207.5C 324.978,207.762 326.311,207.429 327.5,206.5C 324.914,205.52 322.247,205.187 319.5,205.5C 319.5,204.167 319.5,202.833 319.5,201.5C 320.978,201.762 322.311,201.429 323.5,200.5C 316.879,199.541 312.879,195.874 311.5,189.5C 307.927,189.407 304.594,189.907 301.5,191C 299.851,188.352 297.851,186.019 295.5,184C 295.645,183.228 295.978,182.561 296.5,182C 293.388,180.397 290.388,178.563 287.5,176.5C 288.167,175.833 288.833,175.167 289.5,174.5C 287.833,173.833 286.167,173.167 284.5,172.5C 285.993,171.859 286.993,170.859 287.5,169.5 Z"/></g>
<g><path style="opacity:0.11" fill="#f6ebb8" d="M 375.5,217.5 C 377.027,217.427 378.027,218.094 378.5,219.5C 376.973,219.573 375.973,218.906 375.5,217.5 Z"/></g>
<g><path style="opacity:0.031" fill="#fbfad0" d="M 379.5,219.5 C 381.179,219.285 382.179,219.952 382.5,221.5C 380.973,221.573 379.973,220.906 379.5,219.5 Z"/></g>
<g><path style="opacity:1" fill="#e67525" d="M 298.5,229.5 C 298.5,230.167 298.5,230.833 298.5,231.5C 298.5,232.167 298.5,232.833 298.5,233.5C 297.167,233.5 296.5,234.167 296.5,235.5C 295.505,246.654 295.172,257.988 295.5,269.5C 294.668,264.932 293.668,260.265 292.5,255.5C 291.167,256.833 289.833,258.167 288.5,259.5C 287.833,256.833 287.167,254.167 286.5,251.5C 282.536,248.179 278.202,245.346 273.5,243C 272.965,240.891 271.965,240.391 270.5,241.5C 269.833,240.833 269.167,240.167 268.5,239.5C 267.333,252.606 265.666,252.606 263.5,239.5C 262.5,239.5 261.5,239.5 260.5,239.5C 258.994,236.929 257.994,233.596 257.5,229.5C 257.5,222.167 257.5,214.833 257.5,207.5C 258.321,204.359 258.821,201.025 259,197.5C 259.333,198.833 259.667,200.167 260,201.5C 260.741,202.641 261.575,202.641 262.5,201.5C 263.833,205.5 265.167,209.5 266.5,213.5C 267.833,205.5 269.167,205.5 270.5,213.5C 275.308,216.808 279.975,220.308 284.5,224C 283.663,225.011 283.33,226.178 283.5,227.5C 285.5,227.5 287.5,227.5 289.5,227.5C 289.5,230.833 289.5,234.167 289.5,237.5C 290.833,237.5 292.167,237.5 293.5,237.5C 293.5,234.167 293.5,230.833 293.5,227.5C 295.554,227.365 297.221,228.032 298.5,229.5 Z"/></g>
<g><path style="opacity:1" fill="#eea01d" d="M 325.5,189.5 C 325.833,189.5 326.167,189.5 326.5,189.5C 330.6,190.716 334.266,192.716 337.5,195.5C 337.973,196.906 338.973,197.573 340.5,197.5C 342.199,197.527 343.533,198.194 344.5,199.5C 344.5,200.833 345.167,201.5 346.5,201.5C 348.514,201.392 350.18,202.058 351.5,203.5C 351.821,205.048 352.821,205.715 354.5,205.5C 356.199,205.527 357.533,206.194 358.5,207.5C 358.973,208.906 359.973,209.573 361.5,209.5C 361.821,211.048 362.821,211.715 364.5,211.5C 368.428,212.579 371.761,214.579 374.5,217.5C 370.458,217.652 366.958,216.318 364,213.5C 363.5,213.833 363,214.167 362.5,214.5C 364.26,217.212 364.927,220.212 364.5,223.5C 365.978,223.238 367.311,223.571 368.5,224.5C 366.782,229.816 367.616,230.483 371,226.5C 372.269,227.905 372.769,229.571 372.5,231.5C 378.095,235.088 383.429,239.088 388.5,243.5C 390.052,246.993 392.052,250.16 394.5,253C 393.007,254.156 393.174,254.99 395,255.5C 396.011,255.108 396.511,254.441 396.5,253.5C 401.328,256.983 404.994,261.316 407.5,266.5C 410.005,266.98 412.338,267.98 414.5,269.5C 420.395,274.973 426.061,280.64 431.5,286.5C 434.833,287.167 438.167,287.833 441.5,288.5C 439.995,289.842 439.328,291.508 439.5,293.5C 442.247,293.187 444.914,293.52 447.5,294.5C 446.012,296.577 444.012,297.577 441.5,297.5C 441.5,298.833 441.5,300.167 441.5,301.5C 444.748,301.416 447.748,302.249 450.5,304C 450.167,304.333 449.833,304.667 449.5,305C 451.61,305.554 453.61,306.388 455.5,307.5C 456.833,306.833 458.167,306.167 459.5,305.5C 461.891,306.191 461.891,307.191 459.5,308.5C 462.146,310.132 463.479,312.465 463.5,315.5C 467.249,315.617 469.249,317.617 469.5,321.5C 461.891,318.028 454.557,314.028 447.5,309.5C 447.179,307.952 446.179,307.285 444.5,307.5C 443.522,304.675 441.522,303.342 438.5,303.5C 438.167,303.5 437.833,303.5 437.5,303.5C 436.522,300.675 434.522,299.342 431.5,299.5C 431.167,299.5 430.833,299.5 430.5,299.5C 428.543,295.973 425.543,293.973 421.5,293.5C 420.065,290.672 420.731,288.339 423.5,286.5C 420.778,283.936 417.944,281.603 415,279.5C 413.449,280.054 411.949,280.72 410.5,281.5C 408.167,281.167 407.833,280.167 409.5,278.5C 407.018,277.426 404.684,276.092 402.5,274.5C 403.5,273.833 404.5,273.167 405.5,272.5C 401.649,271.655 399.649,269.322 399.5,265.5C 394.505,264.013 390.838,260.847 388.5,256C 386.866,255.506 385.199,255.34 383.5,255.5C 383.5,253.5 383.5,251.5 383.5,249.5C 382.022,249.762 380.689,249.429 379.5,248.5C 376.133,244.501 372.133,241.501 367.5,239.5C 367.351,235.678 365.351,233.345 361.5,232.5C 358.249,227.245 354.249,222.578 349.5,218.5C 344.055,215.955 341.389,211.622 341.5,205.5C 338.411,205.094 335.745,203.76 333.5,201.5C 332.328,201.919 331.328,202.585 330.5,203.5C 329.278,201.091 329.945,199.258 332.5,198C 331.452,194.544 329.119,193.044 325.5,193.5C 325.5,192.167 325.5,190.833 325.5,189.5 Z"/></g>
<g><path style="opacity:0.294" fill="#e9cba4" d="M 389.5,225.5 C 390.833,225.5 391.5,226.167 391.5,227.5C 391.5,226.167 390.833,225.5 389.5,225.5 Z"/></g>
<g><path style="opacity:1" fill="#e2aa6c" d="M 312.5,231.5 C 309.785,229.877 306.785,229.21 303.5,229.5C 307.05,226.695 310.05,227.362 312.5,231.5 Z"/></g>
<g><path style="opacity:0.11" fill="#f9f1bc" d="M 396.5,229.5 C 398.993,229.131 399.66,229.797 398.5,231.5C 397.5,231.167 396.833,230.5 396.5,229.5 Z"/></g>
<g><path style="opacity:0.455" fill="#e3caa7" d="M 313.5,231.5 C 315.027,231.427 316.027,232.094 316.5,233.5C 314.973,233.573 313.973,232.906 313.5,231.5 Z"/></g>
<g><path style="opacity:0.051" fill="#fde9c4" d="M 298.5,231.5 C 299.167,231.5 299.833,231.5 300.5,231.5C 300.5,232.833 299.833,233.5 298.5,233.5C 298.5,232.833 298.5,232.167 298.5,231.5 Z"/></g>
<g><path style="opacity:0.09" fill="#f4dfbf" d="M 316.5,233.5 C 318.179,233.285 319.179,233.952 319.5,235.5C 318.127,235.657 316.793,235.49 315.5,235C 316.056,234.617 316.389,234.117 316.5,233.5 Z"/></g>
<g><path style="opacity:0.847" fill="#f0b77b" d="M 320.5,235.5 C 322.554,235.365 324.221,236.032 325.5,237.5C 325.833,238.167 326.167,238.833 326.5,239.5C 324.034,238.702 322.034,237.369 320.5,235.5 Z"/></g>
<g><path style="opacity:1" fill="#ecba48" d="M 409.5,237.5 C 413.291,238.921 416.624,240.921 419.5,243.5C 416.833,243.5 414.167,243.5 411.5,243.5C 411.386,241.282 410.72,239.282 409.5,237.5 Z"/></g>
<g><path style="opacity:0.537" fill="#e5bf97" d="M 334.5,243.5 C 336.027,243.427 337.027,244.094 337.5,245.5C 335.973,245.573 334.973,244.906 334.5,243.5 Z"/></g>
<g><path style="opacity:0.353" fill="#ebd6b0" d="M 337.5,245.5 C 339.027,245.427 340.027,246.094 340.5,247.5C 338.973,247.573 337.973,246.906 337.5,245.5 Z"/></g>
<g><path style="opacity:0.251" fill="#f2d7a8" d="M 341.5,247.5 C 342.833,247.5 343.5,248.167 343.5,249.5C 342.167,249.5 341.5,248.833 341.5,247.5 Z"/></g>
<g><path style="opacity:0.161" fill="#f2e9ba" d="M 428.5,247.5 C 429.833,247.5 430.5,248.167 430.5,249.5C 430.5,248.167 429.833,247.5 428.5,247.5 Z"/></g>
<g><path style="opacity:0.463" fill="#e9d2a4" d="M 344.5,249.5 C 346.027,249.427 347.027,250.094 347.5,251.5C 345.973,251.573 344.973,250.906 344.5,249.5 Z"/></g>
<g><path style="opacity:1" fill="#e46829" d="M 257.5,229.5 C 257.994,233.596 258.994,236.929 260.5,239.5C 261.5,239.5 262.5,239.5 263.5,239.5C 265.666,252.606 267.333,252.606 268.5,239.5C 269.167,240.167 269.833,240.833 270.5,241.5C 271.965,240.391 272.965,240.891 273.5,243C 278.202,245.346 282.536,248.179 286.5,251.5C 287.167,254.167 287.833,256.833 288.5,259.5C 289.833,258.167 291.167,256.833 292.5,255.5C 293.668,260.265 294.668,264.932 295.5,269.5C 295.5,275.5 295.5,281.5 295.5,287.5C 294.778,287.918 294.278,288.584 294,289.5C 293.086,287.336 291.919,285.336 290.5,283.5C 289.808,284.025 289.308,284.692 289,285.5C 287.957,283.299 287.123,280.966 286.5,278.5C 284.271,277.423 281.937,276.756 279.5,276.5C 279.5,274.833 279.5,273.167 279.5,271.5C 274.657,272.157 271.49,270.157 270,265.5C 269.814,263.1 269.314,260.766 268.5,258.5C 267.833,260.167 267.167,261.833 266.5,263.5C 264.014,261.422 263.014,258.755 263.5,255.5C 261.833,255.5 260.167,255.5 258.5,255.5C 258.5,260.833 258.5,266.167 258.5,271.5C 258.167,271.5 257.833,271.5 257.5,271.5C 257.5,257.5 257.5,243.5 257.5,229.5 Z"/></g>
<g><path style="opacity:0.012" fill="#f8f0ca" d="M 431.5,249.5 C 433.179,249.285 434.179,249.952 434.5,251.5C 433.5,251.5 432.5,251.5 431.5,251.5C 431.5,250.833 431.5,250.167 431.5,249.5 Z"/></g>
<g><path style="opacity:0.333" fill="#f0d495" d="M 434.5,251.5 C 435.833,251.5 436.5,252.167 436.5,253.5C 436.5,252.167 435.833,251.5 434.5,251.5 Z"/></g>
<g><path style="opacity:1" fill="#efa51a" d="M 374.5,217.5 C 374.833,217.5 375.167,217.5 375.5,217.5C 375.973,218.906 376.973,219.573 378.5,219.5C 378.833,219.5 379.167,219.5 379.5,219.5C 379.973,220.906 380.973,221.573 382.5,221.5C 384.944,222.688 387.277,224.021 389.5,225.5C 389.5,226.833 390.167,227.5 391.5,227.5C 393.554,227.365 395.221,228.032 396.5,229.5C 396.833,230.5 397.5,231.167 398.5,231.5C 402.727,232.544 406.394,234.544 409.5,237.5C 405.907,239.467 402.907,238.8 400.5,235.5C 399.52,238.086 399.187,240.753 399.5,243.5C 402.292,243.548 404.125,242.215 405,239.5C 406.431,244.715 409.097,249.048 413,252.5C 414.413,254.652 415.246,256.986 415.5,259.5C 416.978,259.238 418.311,259.571 419.5,260.5C 421.833,262.833 424.167,265.167 426.5,267.5C 427.429,268.689 427.762,270.022 427.5,271.5C 428.833,271.5 430.167,271.5 431.5,271.5C 431.5,272.833 431.5,274.167 431.5,275.5C 432.978,275.238 434.311,275.571 435.5,276.5C 438.453,280.29 442.12,283.123 446.5,285C 451.351,290.684 456.684,295.851 462.5,300.5C 463.386,301.325 463.719,302.325 463.5,303.5C 465.59,303.45 466.923,304.45 467.5,306.5C 470.086,307.48 472.753,307.813 475.5,307.5C 474.665,315.002 477.998,319.335 485.5,320.5C 480.827,321.434 480.494,322.934 484.5,325C 480.773,325.817 477.439,324.983 474.5,322.5C 477.272,320.915 477.106,319.915 474,319.5C 471.046,319.594 470.879,320.094 473.5,321C 472.207,321.49 470.873,321.657 469.5,321.5C 469.249,317.617 467.249,315.617 463.5,315.5C 463.479,312.465 462.146,310.132 459.5,308.5C 461.891,307.191 461.891,306.191 459.5,305.5C 458.167,306.167 456.833,306.833 455.5,307.5C 453.61,306.388 451.61,305.554 449.5,305C 449.833,304.667 450.167,304.333 450.5,304C 447.748,302.249 444.748,301.416 441.5,301.5C 441.5,300.167 441.5,298.833 441.5,297.5C 444.012,297.577 446.012,296.577 447.5,294.5C 444.914,293.52 442.247,293.187 439.5,293.5C 439.328,291.508 439.995,289.842 441.5,288.5C 438.167,287.833 434.833,287.167 431.5,286.5C 426.061,280.64 420.395,274.973 414.5,269.5C 412.338,267.98 410.005,266.98 407.5,266.5C 404.994,261.316 401.328,256.983 396.5,253.5C 396.511,254.441 396.011,255.108 395,255.5C 393.174,254.99 393.007,254.156 394.5,253C 392.052,250.16 390.052,246.993 388.5,243.5C 383.429,239.088 378.095,235.088 372.5,231.5C 372.769,229.571 372.269,227.905 371,226.5C 367.616,230.483 366.782,229.816 368.5,224.5C 367.311,223.571 365.978,223.238 364.5,223.5C 364.927,220.212 364.26,217.212 362.5,214.5C 363,214.167 363.5,213.833 364,213.5C 366.958,216.318 370.458,217.652 374.5,217.5 Z"/></g>
<g><path style="opacity:0.302" fill="#f7dfba" d="M 354.5,255.5 C 356.027,255.427 357.027,256.094 357.5,257.5C 355.973,257.573 354.973,256.906 354.5,255.5 Z"/></g>
<g><path style="opacity:1" fill="#efac1c" d="M 409.5,237.5 C 410.72,239.282 411.386,241.282 411.5,243.5C 414.167,243.5 416.833,243.5 419.5,243.5C 422.607,244.553 425.607,245.886 428.5,247.5C 428.5,248.833 429.167,249.5 430.5,249.5C 430.833,249.5 431.167,249.5 431.5,249.5C 431.5,250.167 431.5,250.833 431.5,251.5C 431.721,252.735 432.388,253.735 433.5,254.5C 431.393,257.275 431.059,260.275 432.5,263.5C 435.469,266.924 439.136,269.257 443.5,270.5C 442.653,272.061 442.986,273.561 444.5,275C 447.592,276.683 450.592,278.516 453.5,280.5C 457.33,285.424 461.997,289.424 467.5,292.5C 469.833,294.833 472.167,297.167 474.5,299.5C 475.429,300.689 475.762,302.022 475.5,303.5C 476.833,303.5 478.167,303.5 479.5,303.5C 479.5,304.833 479.5,306.167 479.5,307.5C 480.978,307.238 482.311,307.571 483.5,308.5C 485.833,310.833 488.167,313.167 490.5,315.5C 491.466,317.396 491.799,319.396 491.5,321.5C 494.343,321.917 497.01,322.917 499.5,324.5C 501.849,327.017 504.349,329.35 507,331.5C 507.49,332.793 507.657,334.127 507.5,335.5C 499.322,338.242 499.655,339.575 508.5,339.5C 508.167,340.167 507.833,340.833 507.5,341.5C 506.021,342.506 504.354,342.506 502.5,341.5C 499.123,339.468 495.789,337.468 492.5,335.5C 491.766,334.292 491.433,332.959 491.5,331.5C 490.167,331.5 488.833,331.5 487.5,331.5C 485.446,331.635 483.779,330.968 482.5,329.5C 482.027,328.094 481.027,327.427 479.5,327.5C 475.757,326.114 472.423,324.114 469.5,321.5C 470.873,321.657 472.207,321.49 473.5,321C 470.879,320.094 471.046,319.594 474,319.5C 477.106,319.915 477.272,320.915 474.5,322.5C 477.439,324.983 480.773,325.817 484.5,325C 480.494,322.934 480.827,321.434 485.5,320.5C 477.998,319.335 474.665,315.002 475.5,307.5C 472.753,307.813 470.086,307.48 467.5,306.5C 466.923,304.45 465.59,303.45 463.5,303.5C 463.719,302.325 463.386,301.325 462.5,300.5C 456.684,295.851 451.351,290.684 446.5,285C 442.12,283.123 438.453,280.29 435.5,276.5C 434.311,275.571 432.978,275.238 431.5,275.5C 431.5,274.167 431.5,272.833 431.5,271.5C 430.167,271.5 428.833,271.5 427.5,271.5C 427.762,270.022 427.429,268.689 426.5,267.5C 424.167,265.167 421.833,262.833 419.5,260.5C 418.311,259.571 416.978,259.238 415.5,259.5C 415.246,256.986 414.413,254.652 413,252.5C 409.097,249.048 406.431,244.715 405,239.5C 404.125,242.215 402.292,243.548 399.5,243.5C 399.187,240.753 399.52,238.086 400.5,235.5C 402.907,238.8 405.907,239.467 409.5,237.5 Z"/></g>
<g><path style="opacity:0.506" fill="#f0cb97" d="M 358.5,257.5 C 360.027,257.427 361.027,258.094 361.5,259.5C 359.973,259.573 358.973,258.906 358.5,257.5 Z"/></g>
<g><path style="opacity:0.333" fill="#f7dcb2" d="M 361.5,259.5 C 363.027,259.427 364.027,260.094 364.5,261.5C 362.973,261.573 361.973,260.906 361.5,259.5 Z"/></g>
<g><path style="opacity:1" fill="#ebc54d" d="M 440.5,255.5 C 445.737,257.215 450.403,259.882 454.5,263.5C 449.706,262.568 445.04,261.235 440.5,259.5C 440.5,258.167 440.5,256.833 440.5,255.5 Z"/></g>
<g><path style="opacity:0.18" fill="#f1e9b3" d="M 365.5,261.5 C 366.833,261.5 367.5,262.167 367.5,263.5C 366.167,263.5 365.5,262.833 365.5,261.5 Z"/></g>
<g><path style="opacity:0.039" fill="#f6debf" d="M 332.5,263.5 C 334.027,263.427 335.027,264.094 335.5,265.5C 333.973,265.573 332.973,264.906 332.5,263.5 Z"/></g>
<g><path style="opacity:0.09" fill="#fae6bf" d="M 368.5,263.5 C 370.027,263.427 371.027,264.094 371.5,265.5C 369.821,265.715 368.821,265.048 368.5,263.5 Z"/></g>
<g><path style="opacity:0.349" fill="#fec49a" d="M 298.5,233.5 C 297.567,256.298 297.234,279.298 297.5,302.5C 296.503,280.34 296.169,258.006 296.5,235.5C 296.5,234.167 297.167,233.5 298.5,233.5 Z"/></g>
<g><path style="opacity:0.514" fill="#eaca93" d="M 372.5,265.5 C 374.027,265.427 375.027,266.094 375.5,267.5C 373.973,267.573 372.973,266.906 372.5,265.5 Z"/></g>
<g><path style="opacity:0.051" fill="#f9e1bd" d="M 339.5,267.5 C 341.027,267.427 342.027,268.094 342.5,269.5C 342.167,269.5 341.833,269.5 341.5,269.5C 340.5,269.167 339.833,268.5 339.5,267.5 Z"/></g>
<g><path style="opacity:1" fill="#f1b218" d="M 431.5,251.5 C 432.5,251.5 433.5,251.5 434.5,251.5C 434.5,252.833 435.167,253.5 436.5,253.5C 438.483,253.157 439.817,253.824 440.5,255.5C 440.5,256.833 440.5,258.167 440.5,259.5C 445.04,261.235 449.706,262.568 454.5,263.5C 458.727,265.064 462.727,267.064 466.5,269.5C 466.5,270.833 467.167,271.5 468.5,271.5C 468.833,271.5 469.167,271.5 469.5,271.5C 469.461,272.583 469.127,273.583 468.5,274.5C 470.396,275.466 472.396,275.799 474.5,275.5C 474.5,276.833 474.5,278.167 474.5,279.5C 473.325,279.281 472.325,279.614 471.5,280.5C 472.687,283.674 474.687,286.174 477.5,288C 476.663,289.011 476.33,290.178 476.5,291.5C 478.433,291.729 480.1,292.562 481.5,294C 480.833,294.333 480.167,294.667 479.5,295C 481.473,295.495 483.473,295.662 485.5,295.5C 486.443,301.106 489.776,303.773 495.5,303.5C 495.16,306.144 495.827,308.477 497.5,310.5C 502.892,312.03 507.892,314.363 512.5,317.5C 513.167,316.167 513.833,314.833 514.5,313.5C 514.891,316.914 514.891,320.248 514.5,323.5C 515.833,320.833 517.167,320.833 518.5,323.5C 519.429,322.311 519.762,320.978 519.5,319.5C 520.5,319.5 521.5,319.5 522.5,319.5C 522.5,321.5 522.5,323.5 522.5,325.5C 521.502,329.505 519.502,332.839 516.5,335.5C 515.167,335.5 514.5,336.167 514.5,337.5C 512.821,337.285 511.821,337.952 511.5,339.5C 511.167,339.5 510.833,339.5 510.5,339.5C 509.833,339.5 509.167,339.5 508.5,339.5C 499.655,339.575 499.322,338.242 507.5,335.5C 507.657,334.127 507.49,332.793 507,331.5C 504.349,329.35 501.849,327.017 499.5,324.5C 497.01,322.917 494.343,321.917 491.5,321.5C 491.799,319.396 491.466,317.396 490.5,315.5C 488.167,313.167 485.833,310.833 483.5,308.5C 482.311,307.571 480.978,307.238 479.5,307.5C 479.5,306.167 479.5,304.833 479.5,303.5C 478.167,303.5 476.833,303.5 475.5,303.5C 475.762,302.022 475.429,300.689 474.5,299.5C 472.167,297.167 469.833,294.833 467.5,292.5C 461.997,289.424 457.33,285.424 453.5,280.5C 450.592,278.516 447.592,276.683 444.5,275C 442.986,273.561 442.653,272.061 443.5,270.5C 439.136,269.257 435.469,266.924 432.5,263.5C 431.059,260.275 431.393,257.275 433.5,254.5C 432.388,253.735 431.721,252.735 431.5,251.5 Z"/></g>
<g><path style="opacity:0.153" fill="#f6ecb7" d="M 466.5,269.5 C 467.833,269.5 468.5,270.167 468.5,271.5C 468.5,270.167 467.833,269.5 466.5,269.5 Z"/></g>
<g><path style="opacity:1" fill="#eec958" d="M 469.5,271.5 C 471.677,272.279 473.344,273.613 474.5,275.5C 472.396,275.799 470.396,275.466 468.5,274.5C 469.127,273.583 469.461,272.583 469.5,271.5 Z"/></g>
<g><path style="opacity:0.435" fill="#edd6a4" d="M 389.5,275.5 C 389.833,275.5 390.167,275.5 390.5,275.5C 391.5,275.833 392.167,276.5 392.5,277.5C 390.973,277.573 389.973,276.906 389.5,275.5 Z"/></g>
<g><path style="opacity:1" fill="#e67426" d="M 369.5,323.5 C 368.833,323.5 368.167,323.5 367.5,323.5C 366.817,321.824 365.483,321.157 363.5,321.5C 363.027,320.094 362.027,319.427 360.5,319.5C 360.167,319.5 359.833,319.5 359.5,319.5C 359.027,318.094 358.027,317.427 356.5,317.5C 356.027,316.094 355.027,315.427 353.5,315.5C 353.167,315.5 352.833,315.5 352.5,315.5C 352.027,314.094 351.027,313.427 349.5,313.5C 348.522,310.675 346.522,309.342 343.5,309.5C 343.167,309.5 342.833,309.5 342.5,309.5C 341.522,306.675 339.522,305.342 336.5,305.5C 336.167,305.5 335.833,305.5 335.5,305.5C 335.027,304.094 334.027,303.427 332.5,303.5C 332.027,302.094 331.027,301.427 329.5,301.5C 329.167,301.5 328.833,301.5 328.5,301.5C 328.027,300.094 327.027,299.427 325.5,299.5C 325.167,299.5 324.833,299.5 324.5,299.5C 323.766,298.292 323.433,296.959 323.5,295.5C 322.167,295.5 320.833,295.5 319.5,295.5C 319.672,294.508 319.338,293.842 318.5,293.5C 316.655,286.372 315.988,279.039 316.5,271.5C 318.143,271.52 319.476,270.853 320.5,269.5C 321.842,271.005 323.508,271.672 325.5,271.5C 325.238,272.978 325.571,274.311 326.5,275.5C 328.374,276.935 330.374,278.102 332.5,279C 332.043,279.414 331.709,279.914 331.5,280.5C 333.743,281.474 336.076,281.808 338.5,281.5C 338.643,283.262 338.309,284.929 337.5,286.5C 338.689,287.429 340.022,287.762 341.5,287.5C 341.5,288.833 341.5,290.167 341.5,291.5C 345.5,291.5 347.5,293.5 347.5,297.5C 350.892,297.871 353.558,299.537 355.5,302.5C 354.167,303.833 354.167,305.167 355.5,306.5C 359.5,308.5 363.5,310.5 367.5,312.5C 368.895,315.59 370.895,318.257 373.5,320.5C 371.668,321.057 370.335,322.057 369.5,323.5 Z"/></g>
<g><path style="opacity:0.141" fill="#f4d5aa" d="M 356.5,277.5 C 358.027,277.427 359.027,278.094 359.5,279.5C 357.973,279.573 356.973,278.906 356.5,277.5 Z"/></g>
<g><path style="opacity:0.263" fill="#f3dca6" d="M 393.5,277.5 C 394.833,277.5 395.5,278.167 395.5,279.5C 394.167,279.5 393.5,278.833 393.5,277.5 Z"/></g>
<g><path style="opacity:0.09" fill="#faecc8" d="M 480.5,277.5 C 481.833,277.5 482.5,278.167 482.5,279.5C 482.5,278.167 481.833,277.5 480.5,277.5 Z"/></g>
<g><path style="opacity:0.11" fill="#f2eaba" d="M 483.5,279.5 C 484.833,279.5 485.5,280.167 485.5,281.5C 485.5,280.167 484.833,279.5 483.5,279.5 Z"/></g>
<g><path style="opacity:0.333" fill="#f6e1b2" d="M 399.5,281.5 C 401.027,281.427 402.027,282.094 402.5,283.5C 400.973,283.573 399.973,282.906 399.5,281.5 Z"/></g>
<g><path style="opacity:0.161" fill="#f0d4ab" d="M 363.5,281.5 C 365.027,281.427 366.027,282.094 366.5,283.5C 364.973,283.573 363.973,282.906 363.5,281.5 Z"/></g>
<g><path style="opacity:0.243" fill="#f9dfc4" d="M 487.5,281.5 C 488.5,281.833 489.167,282.5 489.5,283.5C 488.167,283.5 487.5,282.833 487.5,281.5 Z"/></g>
<g><path style="opacity:0.463" fill="#f1d1a0" d="M 403.5,283.5 C 405.027,283.427 406.027,284.094 406.5,285.5C 404.973,285.573 403.973,284.906 403.5,283.5 Z"/></g>
<g><path style="opacity:0.059" fill="#f6e3c1" d="M 367.5,283.5 C 369.179,283.285 370.179,283.952 370.5,285.5C 368.821,285.715 367.821,285.048 367.5,283.5 Z"/></g>
<g><path style="opacity:1" fill="#f2ba17" d="M 474.5,275.5 C 476.685,275.704 478.685,276.37 480.5,277.5C 480.5,278.833 481.167,279.5 482.5,279.5C 482.833,279.5 483.167,279.5 483.5,279.5C 483.5,280.833 484.167,281.5 485.5,281.5C 486.167,281.5 486.833,281.5 487.5,281.5C 487.5,282.833 488.167,283.5 489.5,283.5C 494.636,285.902 499.636,288.568 504.5,291.5C 504.5,292.833 505.167,293.5 506.5,293.5C 506.833,293.5 507.167,293.5 507.5,293.5C 507.5,294.833 508.167,295.5 509.5,295.5C 510.167,295.5 510.833,295.5 511.5,295.5C 511.5,296.167 511.5,296.833 511.5,297.5C 511.281,298.675 511.614,299.675 512.5,300.5C 514.453,301.024 516.12,302.024 517.5,303.5C 518.104,306.263 519.438,308.597 521.5,310.5C 522.407,313.421 522.74,316.421 522.5,319.5C 521.5,319.5 520.5,319.5 519.5,319.5C 519.762,320.978 519.429,322.311 518.5,323.5C 517.167,320.833 515.833,320.833 514.5,323.5C 514.891,320.248 514.891,316.914 514.5,313.5C 513.833,314.833 513.167,316.167 512.5,317.5C 507.892,314.363 502.892,312.03 497.5,310.5C 495.827,308.477 495.16,306.144 495.5,303.5C 489.776,303.773 486.443,301.106 485.5,295.5C 483.473,295.662 481.473,295.495 479.5,295C 480.167,294.667 480.833,294.333 481.5,294C 480.1,292.562 478.433,291.729 476.5,291.5C 476.33,290.178 476.663,289.011 477.5,288C 474.687,286.174 472.687,283.674 471.5,280.5C 472.325,279.614 473.325,279.281 474.5,279.5C 474.5,278.167 474.5,276.833 474.5,275.5 Z"/></g>
<g><path style="opacity:0.11" fill="#f5dbb1" d="M 370.5,285.5 C 372.027,285.427 373.027,286.094 373.5,287.5C 371.973,287.573 370.973,286.906 370.5,285.5 Z"/></g>
<g><path style="opacity:0.796" fill="#edc980" d="M 410.5,287.5 C 413.522,287.342 415.522,288.675 416.5,291.5C 414.034,290.702 412.034,289.369 410.5,287.5 Z"/></g>
<g><path style="opacity:0.122" fill="#f9d8b1" d="M 377.5,289.5 C 379.027,289.427 380.027,290.094 380.5,291.5C 378.973,291.573 377.973,290.906 377.5,289.5 Z"/></g>
<g><path style="opacity:0.051" fill="#fbf3ca" d="M 417.5,291.5 C 418.5,291.833 419.167,292.5 419.5,293.5C 417.007,293.869 416.34,293.203 417.5,291.5 Z"/></g>
<g><path style="opacity:0.11" fill="#f9eab9" d="M 504.5,291.5 C 505.833,291.5 506.5,292.167 506.5,293.5C 506.5,292.167 505.833,291.5 504.5,291.5 Z"/></g>
<g><path style="opacity:0.718" fill="#e09a74" d="M 315.5,293.5 C 316.5,293.5 317.5,293.5 318.5,293.5C 319.338,293.842 319.672,294.508 319.5,295.5C 317.517,295.843 316.183,295.176 315.5,293.5 Z"/></g>
<g><path style="opacity:1" fill="#e8a35d" d="M 380.5,291.5 C 384.428,292.579 387.761,294.579 390.5,297.5C 388.085,297.627 385.751,297.793 383.5,298C 384.328,297.085 385.328,296.419 386.5,296C 383.504,295.684 381.504,294.184 380.5,291.5 Z"/></g>
<g><path style="opacity:0.929" fill="#ecbc68" d="M 421.5,293.5 C 425.543,293.973 428.543,295.973 430.5,299.5C 426.903,298.209 423.903,296.209 421.5,293.5 Z"/></g>
<g><path style="opacity:0.302" fill="#f2e599" d="M 507.5,293.5 C 508.833,293.5 509.5,294.167 509.5,295.5C 509.5,294.167 508.833,293.5 507.5,293.5 Z"/></g>
<g><path style="opacity:1" fill="#e6a177" d="M 319.5,295.5 C 320.833,295.5 322.167,295.5 323.5,295.5C 323.433,296.959 323.766,298.292 324.5,299.5C 322.323,298.721 320.656,297.387 319.5,295.5 Z"/></g>
<g><path style="opacity:0.122" fill="#f7edb6" d="M 511.5,295.5 C 512.833,295.5 513.5,296.167 513.5,297.5C 512.833,297.5 512.167,297.5 511.5,297.5C 511.5,296.833 511.5,296.167 511.5,295.5 Z"/></g>
<g><path style="opacity:0.333" fill="#e6bd9a" d="M 391.5,297.5 C 392.833,297.5 393.5,298.167 393.5,299.5C 393.5,298.167 392.833,297.5 391.5,297.5 Z"/></g>
<g><path style="opacity:0.424" fill="#ecceaa" d="M 325.5,299.5 C 327.027,299.427 328.027,300.094 328.5,301.5C 326.973,301.573 325.973,300.906 325.5,299.5 Z"/></g>
<g><path style="opacity:0.776" fill="#ebc476" d="M 431.5,299.5 C 434.522,299.342 436.522,300.675 437.5,303.5C 434.828,303.052 432.828,301.719 431.5,299.5 Z"/></g>
<g><path style="opacity:0.537" fill="#e4b697" d="M 329.5,301.5 C 331.027,301.427 332.027,302.094 332.5,303.5C 330.973,303.573 329.973,302.906 329.5,301.5 Z"/></g>
<g><path style="opacity:1" fill="#d36636" d="M 296.5,235.5 C 296.169,258.006 296.503,280.34 297.5,302.5C 298.167,305.167 299.833,306.833 302.5,307.5C 304.199,307.527 305.533,308.194 306.5,309.5C 306.973,310.906 307.973,311.573 309.5,311.5C 311.027,311.427 312.027,312.094 312.5,313.5C 310.076,313.808 307.743,313.474 305.5,312.5C 303.04,310.187 300.207,308.521 297,307.5C 295.671,300.908 295.171,294.241 295.5,287.5C 295.5,281.5 295.5,275.5 295.5,269.5C 295.172,257.988 295.505,246.654 296.5,235.5 Z"/></g>
<g><path style="opacity:0.373" fill="#efc9ad" d="M 332.5,303.5 C 334.027,303.427 335.027,304.094 335.5,305.5C 333.973,305.573 332.973,304.906 332.5,303.5 Z"/></g>
<g><path style="opacity:1" fill="#e87b25" d="M 332.5,263.5 C 332.973,264.906 333.973,265.573 335.5,265.5C 337.199,265.527 338.533,266.194 339.5,267.5C 339.833,268.5 340.5,269.167 341.5,269.5C 341.472,271.582 342.139,273.416 343.5,275C 342.17,274.923 340.836,274.423 339.5,273.5C 338.833,273.833 338.167,274.167 337.5,274.5C 339.237,280.266 343.237,282.933 349.5,282.5C 350.598,290.023 354.265,296.023 360.5,300.5C 362.498,302.334 364.832,303.334 367.5,303.5C 367.238,304.978 367.571,306.311 368.5,307.5C 372.302,309.37 374.802,312.37 376,316.5C 377.848,319.041 380.348,320.041 383.5,319.5C 384.285,322.805 385.785,325.805 388,328.5C 388.333,328.167 388.667,327.833 389,327.5C 391.915,332.222 396.082,334.889 401.5,335.5C 401.714,339.257 400.714,339.924 398.5,337.5C 396.872,338.535 395.205,338.535 393.5,337.5C 392.833,337.5 392.167,337.5 391.5,337.5C 391.027,336.094 390.027,335.427 388.5,335.5C 388.461,334.417 388.127,333.417 387.5,332.5C 384.456,331.485 381.456,330.485 378.5,329.5C 378.167,329.5 377.833,329.5 377.5,329.5C 377.027,328.094 376.027,327.427 374.5,327.5C 374.167,327.5 373.833,327.5 373.5,327.5C 373.167,326.5 372.5,325.833 371.5,325.5C 371.167,325.5 370.833,325.5 370.5,325.5C 370.167,324.833 369.833,324.167 369.5,323.5C 370.335,322.057 371.668,321.057 373.5,320.5C 370.895,318.257 368.895,315.59 367.5,312.5C 363.5,310.5 359.5,308.5 355.5,306.5C 354.167,305.167 354.167,303.833 355.5,302.5C 353.558,299.537 350.892,297.871 347.5,297.5C 347.5,293.5 345.5,291.5 341.5,291.5C 341.5,290.167 341.5,288.833 341.5,287.5C 340.022,287.762 338.689,287.429 337.5,286.5C 338.309,284.929 338.643,283.262 338.5,281.5C 336.076,281.808 333.743,281.474 331.5,280.5C 331.709,279.914 332.043,279.414 332.5,279C 330.374,278.102 328.374,276.935 326.5,275.5C 325.571,274.311 325.238,272.978 325.5,271.5C 323.508,271.672 321.842,271.005 320.5,269.5C 319.476,270.853 318.143,271.52 316.5,271.5C 315.988,279.039 316.655,286.372 318.5,293.5C 317.5,293.5 316.5,293.5 315.5,293.5C 315.168,280.483 315.501,267.483 316.5,254.5C 321.9,257.51 327.234,260.51 332.5,263.5 Z"/></g>
<g><path style="opacity:0.514" fill="#eab39a" d="M 297.5,302.5 C 299.5,303.833 301.167,305.5 302.5,307.5C 299.833,306.833 298.167,305.167 297.5,302.5 Z"/></g>
<g><path style="opacity:0.949" fill="#edc26d" d="M 438.5,303.5 C 441.522,303.342 443.522,304.675 444.5,307.5C 442.034,306.702 440.034,305.369 438.5,303.5 Z"/></g>
<g><path style="opacity:1" fill="#e0502f" d="M 257.5,271.5 C 257.833,271.5 258.167,271.5 258.5,271.5C 259.167,277.346 259.833,283.346 260.5,289.5C 261.047,281.53 263.047,280.863 266.5,287.5C 267.167,290.167 267.833,292.833 268.5,295.5C 269.167,293.5 269.833,291.5 270.5,289.5C 271.134,291.567 272.134,293.4 273.5,295C 273.167,295.333 272.833,295.667 272.5,296C 275.785,297.779 278.118,300.279 279.5,303.5C 280.833,303.5 282.167,303.5 283.5,303.5C 286.074,306.936 287.74,310.936 288.5,315.5C 290.015,313.453 290.849,311.119 291,308.5C 293.61,310.352 296.11,312.352 298.5,314.5C 297.055,316.063 295.389,317.396 293.5,318.5C 294.333,318.833 295.167,319.167 296,319.5C 298.685,317.933 301.518,317.433 304.5,318C 303.377,319.044 302.044,319.71 300.5,320C 306.735,326.284 312.735,332.784 318.5,339.5C 319.429,340.689 319.762,342.022 319.5,343.5C 323.778,344.595 327.112,347.095 329.5,351C 330.5,351.333 331.5,351.667 332.5,352C 333.956,354.412 335.29,356.912 336.5,359.5C 337.521,358.099 338.521,356.765 339.5,355.5C 339.47,356.497 339.97,357.164 341,357.5C 343.958,354.682 347.458,353.348 351.5,353.5C 351.5,354.833 351.5,356.167 351.5,357.5C 349.396,357.201 347.396,357.534 345.5,358.5C 346.325,359.386 347.325,359.719 348.5,359.5C 346.607,361.228 344.94,363.228 343.5,365.5C 343.167,365.5 342.833,365.5 342.5,365.5C 339.361,365.599 337.027,366.932 335.5,369.5C 332.446,369.354 330.446,370.687 329.5,373.5C 329.167,373.5 328.833,373.5 328.5,373.5C 325.361,373.599 323.027,374.932 321.5,377.5C 319.5,377.5 317.5,377.5 315.5,377.5C 316.183,375.824 317.517,375.157 319.5,375.5C 319.5,374.167 319.5,372.833 319.5,371.5C 320.007,370.141 321.007,369.141 322.5,368.5C 318.785,364.463 314.452,361.13 309.5,358.5C 306.912,354.326 304.579,349.993 302.5,345.5C 301.784,344.689 300.95,344.022 300,343.5C 298.989,343.892 298.489,344.559 298.5,345.5C 294.5,344.167 291.833,341.5 290.5,337.5C 287.991,336.079 285.657,334.412 283.5,332.5C 284.557,332.094 285.891,332.094 287.5,332.5C 287.719,331.325 287.386,330.325 286.5,329.5C 283.991,328.079 281.657,326.412 279.5,324.5C 281.401,323.065 281.734,321.398 280.5,319.5C 277.833,316.833 275.167,314.167 272.5,311.5C 271.936,307.356 271.103,303.356 270,299.5C 270.133,306.575 269.3,313.242 267.5,319.5C 265.75,322.355 264.917,325.689 265,329.5C 263.956,328.377 263.29,327.044 263,325.5C 262.667,326.167 262.333,326.833 262,327.5C 261.503,324.854 261.336,322.187 261.5,319.5C 260.5,319.5 259.5,319.5 258.5,319.5C 258.167,319.5 257.833,319.5 257.5,319.5C 257.5,303.5 257.5,287.5 257.5,271.5 Z"/></g>
<g><path style="opacity:1" fill="#e9a659" d="M 394.5,299.5 C 398.512,300.59 401.845,302.59 404.5,305.5C 402.857,305.48 401.524,306.147 400.5,307.5C 399.41,306.609 399.41,305.609 400.5,304.5C 397.648,303.755 395.648,302.089 394.5,299.5 Z"/></g>
<g><path style="opacity:0.82" fill="#e8a278" d="M 336.5,305.5 C 339.522,305.342 341.522,306.675 342.5,309.5C 340.034,308.702 338.034,307.369 336.5,305.5 Z"/></g>
<g><path style="opacity:0.486" fill="#fcdb93" d="M 519.5,303.5 C 521.104,304.287 521.771,305.62 521.5,307.5C 520.326,306.486 519.66,305.153 519.5,303.5 Z"/></g>
<g><path style="opacity:1" fill="#e9a354" d="M 404.5,305.5 C 407.237,306.217 409.57,307.55 411.5,309.5C 409.396,309.799 407.396,309.466 405.5,308.5C 404.873,307.583 404.539,306.583 404.5,305.5 Z"/></g>
<g><path style="opacity:0.243" fill="#f5d5ac" d="M 444.5,307.5 C 446.179,307.285 447.179,307.952 447.5,309.5C 445.973,309.573 444.973,308.906 444.5,307.5 Z"/></g>
<g><path style="opacity:1" fill="#eecc47" d="M 511.5,297.5 C 512.167,297.5 512.833,297.5 513.5,297.5C 516.167,298.833 518.167,300.833 519.5,303.5C 519.66,305.153 520.326,306.486 521.5,307.5C 523.002,310.413 524.002,313.58 524.5,317C 523.872,319.939 523.205,322.772 522.5,325.5C 522.5,323.5 522.5,321.5 522.5,319.5C 522.74,316.421 522.407,313.421 521.5,310.5C 519.438,308.597 518.104,306.263 517.5,303.5C 516.12,302.024 514.453,301.024 512.5,300.5C 511.614,299.675 511.281,298.675 511.5,297.5 Z"/></g>
<g><path style="opacity:0.071" fill="#f1c5b2" d="M 306.5,309.5 C 308.027,309.427 309.027,310.094 309.5,311.5C 307.973,311.573 306.973,310.906 306.5,309.5 Z"/></g>
<g><path style="opacity:0.859" fill="#eaa275" d="M 343.5,309.5 C 346.522,309.342 348.522,310.675 349.5,313.5C 347.034,312.702 345.034,311.369 343.5,309.5 Z"/></g>
<g><path style="opacity:0.161" fill="#f1daac" d="M 415.5,311.5 C 417.179,311.285 418.179,311.952 418.5,313.5C 416.821,313.715 415.821,313.048 415.5,311.5 Z"/></g>
<g><path style="opacity:0.243" fill="#f4d8bf" d="M 349.5,313.5 C 351.027,313.427 352.027,314.094 352.5,315.5C 350.973,315.573 349.973,314.906 349.5,313.5 Z"/></g>
<g><path style="opacity:0.494" fill="#e6bfa0" d="M 353.5,315.5 C 355.027,315.427 356.027,316.094 356.5,317.5C 354.973,317.573 353.973,316.906 353.5,315.5 Z"/></g>
<g><path style="opacity:0.102" fill="#f3dfb3" d="M 422.5,315.5 C 424.027,315.427 425.027,316.094 425.5,317.5C 423.973,317.573 422.973,316.906 422.5,315.5 Z"/></g>
<g><path style="opacity:1" fill="#e25c2c" d="M 295.5,287.5 C 295.171,294.241 295.671,300.908 297,307.5C 300.207,308.521 303.04,310.187 305.5,312.5C 307.743,313.474 310.076,313.808 312.5,313.5C 312.833,313.5 313.167,313.5 313.5,313.5C 315.371,315.277 316.038,317.277 315.5,319.5C 316.524,318.147 317.857,317.48 319.5,317.5C 319.833,317.5 320.167,317.5 320.5,317.5C 320.973,318.906 321.973,319.573 323.5,319.5C 323.833,319.5 324.167,319.5 324.5,319.5C 324.973,320.906 325.973,321.573 327.5,321.5C 327.973,322.906 328.973,323.573 330.5,323.5C 330.833,324.833 331.167,326.167 331.5,327.5C 329.083,329.883 326.083,331.55 322.5,332.5C 326.659,332.872 329.659,334.872 331.5,338.5C 332.689,339.429 334.022,339.762 335.5,339.5C 335.5,340.833 335.5,342.167 335.5,343.5C 339.831,343.829 343.164,345.829 345.5,349.5C 344.582,352.56 342.582,354.56 339.5,355.5C 338.521,356.765 337.521,358.099 336.5,359.5C 335.29,356.912 333.956,354.412 332.5,352C 331.5,351.667 330.5,351.333 329.5,351C 327.112,347.095 323.778,344.595 319.5,343.5C 319.762,342.022 319.429,340.689 318.5,339.5C 312.735,332.784 306.735,326.284 300.5,320C 302.044,319.71 303.377,319.044 304.5,318C 301.518,317.433 298.685,317.933 296,319.5C 295.167,319.167 294.333,318.833 293.5,318.5C 295.389,317.396 297.055,316.063 298.5,314.5C 296.11,312.352 293.61,310.352 291,308.5C 290.849,311.119 290.015,313.453 288.5,315.5C 287.74,310.936 286.074,306.936 283.5,303.5C 282.167,303.5 280.833,303.5 279.5,303.5C 278.118,300.279 275.785,297.779 272.5,296C 272.833,295.667 273.167,295.333 273.5,295C 272.134,293.4 271.134,291.567 270.5,289.5C 269.833,291.5 269.167,293.5 268.5,295.5C 267.833,292.833 267.167,290.167 266.5,287.5C 263.047,280.863 261.047,281.53 260.5,289.5C 259.833,283.346 259.167,277.346 258.5,271.5C 258.5,266.167 258.5,260.833 258.5,255.5C 260.167,255.5 261.833,255.5 263.5,255.5C 263.014,258.755 264.014,261.422 266.5,263.5C 267.167,261.833 267.833,260.167 268.5,258.5C 269.314,260.766 269.814,263.1 270,265.5C 271.49,270.157 274.657,272.157 279.5,271.5C 279.5,273.167 279.5,274.833 279.5,276.5C 281.937,276.756 284.271,277.423 286.5,278.5C 287.123,280.966 287.957,283.299 289,285.5C 289.308,284.692 289.808,284.025 290.5,283.5C 291.919,285.336 293.086,287.336 294,289.5C 294.278,288.584 294.778,287.918 295.5,287.5 Z"/></g>
<g><path style="opacity:1" fill="#dc815c" d="M 313.5,313.5 C 315.853,314.34 317.853,315.674 319.5,317.5C 317.857,317.48 316.524,318.147 315.5,319.5C 316.038,317.277 315.371,315.277 313.5,313.5 Z"/></g>
<g><path style="opacity:1" fill="#ea8821" d="M 362.5,281.5 C 362.833,281.5 363.167,281.5 363.5,281.5C 363.973,282.906 364.973,283.573 366.5,283.5C 366.833,283.5 367.167,283.5 367.5,283.5C 367.821,285.048 368.821,285.715 370.5,285.5C 370.973,286.906 371.973,287.573 373.5,287.5C 375.199,287.527 376.533,288.194 377.5,289.5C 377.973,290.906 378.973,291.573 380.5,291.5C 381.504,294.184 383.504,295.684 386.5,296C 385.328,296.419 384.328,297.085 383.5,298C 385.751,297.793 388.085,297.627 390.5,297.5C 390.833,297.5 391.167,297.5 391.5,297.5C 391.5,298.833 392.167,299.5 393.5,299.5C 393.833,299.5 394.167,299.5 394.5,299.5C 395.648,302.089 397.648,303.755 400.5,304.5C 399.41,305.609 399.41,306.609 400.5,307.5C 401.524,306.147 402.857,305.48 404.5,305.5C 404.539,306.583 404.873,307.583 405.5,308.5C 407.396,309.466 409.396,309.799 411.5,309.5C 413.062,309.733 414.395,310.4 415.5,311.5C 415.821,313.048 416.821,313.715 418.5,313.5C 420.199,313.527 421.533,314.194 422.5,315.5C 422.973,316.906 423.973,317.573 425.5,317.5C 425.747,320.157 426.747,322.49 428.5,324.5C 431.833,325.167 435.167,325.833 438.5,326.5C 437.092,327.243 435.759,328.077 434.5,329C 435.711,330.113 435.711,331.28 434.5,332.5C 437.785,333.324 441.118,333.824 444.5,334C 443.833,334.333 443.167,334.667 442.5,335C 445.638,336.971 447.305,339.804 447.5,343.5C 449.924,343.192 452.257,343.526 454.5,344.5C 451.047,345.479 450.714,346.979 453.5,349C 455.473,349.495 457.473,349.662 459.5,349.5C 459.032,352.942 460.198,355.609 463,357.5C 463.308,356.692 463.808,356.025 464.5,355.5C 466.888,359.551 469.888,360.217 473.5,357.5C 474.713,357.747 475.38,358.414 475.5,359.5C 475.027,360.906 474.027,361.573 472.5,361.5C 470.973,361.427 469.973,362.094 469.5,363.5C 469.167,363.5 468.833,363.5 468.5,363.5C 467.167,363.5 466.5,364.167 466.5,365.5C 466.167,365.5 465.833,365.5 465.5,365.5C 464.167,365.5 463.5,366.167 463.5,367.5C 462.833,367.5 462.167,367.5 461.5,367.5C 460.167,367.5 459.5,368.167 459.5,369.5C 459.167,369.5 458.833,369.5 458.5,369.5C 456.973,369.427 455.973,370.094 455.5,371.5C 453.138,373.401 450.471,374.735 447.5,375.5C 447.666,372.832 448.666,370.498 450.5,368.5C 448.257,367.526 445.924,367.192 443.5,367.5C 443.649,366.448 443.483,365.448 443,364.5C 440.35,361.349 437.516,358.349 434.5,355.5C 433.571,354.311 433.238,352.978 433.5,351.5C 428.704,350.708 425.371,348.042 423.5,343.5C 420.618,343.392 418.285,342.226 416.5,340C 415.62,338.644 415.286,337.144 415.5,335.5C 414.127,335.657 412.793,335.49 411.5,335C 408,330.833 404.167,327 400,323.5C 399.51,322.207 399.343,320.873 399.5,319.5C 398.127,319.657 396.793,319.49 395.5,319C 391.492,313.476 386.826,308.643 381.5,304.5C 378.326,302.775 374.993,301.442 371.5,300.5C 369.787,299.122 368.453,297.455 367.5,295.5C 367.919,294.328 368.585,293.328 369.5,292.5C 367.684,291.185 366.017,289.685 364.5,288C 364.957,287.586 365.291,287.086 365.5,286.5C 364.167,285.833 362.833,285.167 361.5,284.5C 362.127,283.583 362.461,282.583 362.5,281.5 Z"/></g>
<g><path style="opacity:0.141" fill="#f3cbb3" d="M 320.5,317.5 C 322.027,317.427 323.027,318.094 323.5,319.5C 321.973,319.573 320.973,318.906 320.5,317.5 Z"/></g>
<g><path style="opacity:0.231" fill="#f7d8ba" d="M 356.5,317.5 C 358.027,317.427 359.027,318.094 359.5,319.5C 357.973,319.573 356.973,318.906 356.5,317.5 Z"/></g>
<g><path style="opacity:0.012" fill="#fae5ce" d="M 324.5,319.5 C 326.027,319.427 327.027,320.094 327.5,321.5C 325.973,321.573 324.973,320.906 324.5,319.5 Z"/></g>
<g><path style="opacity:0.463" fill="#e3c3a2" d="M 360.5,319.5 C 362.027,319.427 363.027,320.094 363.5,321.5C 361.973,321.573 360.973,320.906 360.5,319.5 Z"/></g>
<g><path style="opacity:0.059" fill="#f1d8bb" d="M 327.5,321.5 C 329.027,321.427 330.027,322.094 330.5,323.5C 328.973,323.573 327.973,322.906 327.5,321.5 Z"/></g>
<g><path style="opacity:0.616" fill="#e1af85" d="M 363.5,321.5 C 365.483,321.157 366.817,321.824 367.5,323.5C 365.517,323.843 364.183,323.176 363.5,321.5 Z"/></g>
<g><path style="opacity:0.537" fill="#e0bc99" d="M 367.5,323.5 C 368.167,323.5 368.833,323.5 369.5,323.5C 369.833,324.167 370.167,324.833 370.5,325.5C 368.973,325.573 367.973,324.906 367.5,323.5 Z"/></g>
<g><path style="opacity:1" fill="#e87f24" d="M 341.5,269.5 C 341.833,269.5 342.167,269.5 342.5,269.5C 347.477,271.654 352.144,274.321 356.5,277.5C 356.973,278.906 357.973,279.573 359.5,279.5C 361.179,279.285 362.179,279.952 362.5,281.5C 362.461,282.583 362.127,283.583 361.5,284.5C 362.833,285.167 364.167,285.833 365.5,286.5C 365.291,287.086 364.957,287.586 364.5,288C 366.017,289.685 367.684,291.185 369.5,292.5C 368.585,293.328 367.919,294.328 367.5,295.5C 368.453,297.455 369.787,299.122 371.5,300.5C 374.993,301.442 378.326,302.775 381.5,304.5C 386.826,308.643 391.492,313.476 395.5,319C 396.793,319.49 398.127,319.657 399.5,319.5C 399.343,320.873 399.51,322.207 400,323.5C 404.167,327 408,330.833 411.5,335C 412.793,335.49 414.127,335.657 415.5,335.5C 415.286,337.144 415.62,338.644 416.5,340C 418.285,342.226 420.618,343.392 423.5,343.5C 425.371,348.042 428.704,350.708 433.5,351.5C 433.238,352.978 433.571,354.311 434.5,355.5C 437.516,358.349 440.35,361.349 443,364.5C 443.483,365.448 443.649,366.448 443.5,367.5C 445.924,367.192 448.257,367.526 450.5,368.5C 448.666,370.498 447.666,372.832 447.5,375.5C 444.187,376.155 441.187,377.489 438.5,379.5C 437.022,379.762 435.689,379.429 434.5,378.5C 434.709,377.914 435.043,377.414 435.5,377C 433.5,376.167 431.5,375.333 429.5,374.5C 422.5,367.5 415.5,360.5 408.5,353.5C 407.833,350.167 407.167,346.833 406.5,343.5C 405.52,346.086 405.187,348.753 405.5,351.5C 404.5,351.5 403.5,351.5 402.5,351.5C 402.795,349.265 402.461,347.265 401.5,345.5C 401.201,341.868 399.201,339.868 395.5,339.5C 395.167,339.5 394.833,339.5 394.5,339.5C 394.167,338.833 393.833,338.167 393.5,337.5C 395.205,338.535 396.872,338.535 398.5,337.5C 400.714,339.924 401.714,339.257 401.5,335.5C 396.082,334.889 391.915,332.222 389,327.5C 388.667,327.833 388.333,328.167 388,328.5C 385.785,325.805 384.285,322.805 383.5,319.5C 380.348,320.041 377.848,319.041 376,316.5C 374.802,312.37 372.302,309.37 368.5,307.5C 367.571,306.311 367.238,304.978 367.5,303.5C 364.832,303.334 362.498,302.334 360.5,300.5C 354.265,296.023 350.598,290.023 349.5,282.5C 343.237,282.933 339.237,280.266 337.5,274.5C 338.167,274.167 338.833,273.833 339.5,273.5C 340.836,274.423 342.17,274.923 343.5,275C 342.139,273.416 341.472,271.582 341.5,269.5 Z"/></g>
<g><path style="opacity:1" fill="#df4832" d="M 319.5,371.5 C 311.074,367.855 303.241,363.188 296,357.5C 295.64,355.579 294.806,353.912 293.5,352.5C 287.91,348.749 282.743,344.416 278,339.5C 277.493,338.004 277.993,336.837 279.5,336C 275.549,335.437 272.549,333.437 270.5,330C 269.552,329.517 268.552,329.351 267.5,329.5C 267.5,326.167 267.5,322.833 267.5,319.5C 269.3,313.242 270.133,306.575 270,299.5C 271.103,303.356 271.936,307.356 272.5,311.5C 275.167,314.167 277.833,316.833 280.5,319.5C 281.734,321.398 281.401,323.065 279.5,324.5C 281.657,326.412 283.991,328.079 286.5,329.5C 287.386,330.325 287.719,331.325 287.5,332.5C 285.891,332.094 284.557,332.094 283.5,332.5C 285.657,334.412 287.991,336.079 290.5,337.5C 291.833,341.5 294.5,344.167 298.5,345.5C 298.489,344.559 298.989,343.892 300,343.5C 300.95,344.022 301.784,344.689 302.5,345.5C 304.579,349.993 306.912,354.326 309.5,358.5C 314.452,361.13 318.785,364.463 322.5,368.5C 321.007,369.141 320.007,370.141 319.5,371.5 Z"/></g>
<g><path style="opacity:0.031" fill="#f5ddba" d="M 371.5,325.5 C 372.5,325.833 373.167,326.5 373.5,327.5C 372.167,327.5 371.5,326.833 371.5,325.5 Z"/></g>
<g><path style="opacity:0.224" fill="#f2e2ab" d="M 439.5,325.5 C 441.179,325.285 442.179,325.952 442.5,327.5C 440.973,327.573 439.973,326.906 439.5,325.5 Z"/></g>
<g><path style="opacity:0.565" fill="#e4b697" d="M 374.5,327.5 C 376.027,327.427 377.027,328.094 377.5,329.5C 375.973,329.573 374.973,328.906 374.5,327.5 Z"/></g>
<g><path style="opacity:0.11" fill="#f6e7b5" d="M 443.5,327.5 C 445.027,327.427 446.027,328.094 446.5,329.5C 444.973,329.573 443.973,328.906 443.5,327.5 Z"/></g>
<g><path style="opacity:0.153" fill="#f7eeb3" d="M 479.5,327.5 C 481.027,327.427 482.027,328.094 482.5,329.5C 480.821,329.715 479.821,329.048 479.5,327.5 Z"/></g>
<g><path style="opacity:1" fill="#dd4134" d="M 258.5,319.5 C 259.5,319.5 260.5,319.5 261.5,319.5C 261.336,322.187 261.503,324.854 262,327.5C 262.333,326.833 262.667,326.167 263,325.5C 263.29,327.044 263.956,328.377 265,329.5C 264.917,325.689 265.75,322.355 267.5,319.5C 267.5,322.833 267.5,326.167 267.5,329.5C 268.552,329.351 269.552,329.517 270.5,330C 272.549,333.437 275.549,335.437 279.5,336C 277.993,336.837 277.493,338.004 278,339.5C 282.743,344.416 287.91,348.749 293.5,352.5C 294.806,353.912 295.64,355.579 296,357.5C 303.241,363.188 311.074,367.855 319.5,371.5C 319.5,372.833 319.5,374.167 319.5,375.5C 317.517,375.157 316.183,375.824 315.5,377.5C 314.194,378.467 313.527,379.801 313.5,381.5C 311.801,381.527 310.467,382.194 309.5,383.5C 308.322,382.001 306.655,381.001 304.5,380.5C 298.389,374.325 292.723,367.659 287.5,360.5C 284.833,359.366 282.167,358.366 279.5,357.5C 279.762,356.022 279.429,354.689 278.5,353.5C 276.083,350.672 273.25,348.339 270,346.5C 268.088,341.753 266.921,336.753 266.5,331.5C 265.833,336.833 265.167,342.167 264.5,347.5C 263.673,343.541 263.173,339.541 263,335.5C 261.705,336.841 261.205,338.174 261.5,339.5C 260.28,339.113 259.613,338.28 259.5,337C 259.96,335.699 260.294,334.366 260.5,333C 258.753,328.738 258.087,324.238 258.5,319.5 Z"/></g>
<g><path style="opacity:1" fill="#e17a4c" d="M 330.5,323.5 C 335.322,325.409 339.656,328.076 343.5,331.5C 342.417,331.539 341.417,331.873 340.5,332.5C 339.552,329.285 338.219,328.952 336.5,331.5C 335.571,330.311 335.238,328.978 335.5,327.5C 334.167,327.5 332.833,327.5 331.5,327.5C 331.167,326.167 330.833,324.833 330.5,323.5 Z"/></g>
<g><path style="opacity:0.173" fill="#f3d7b8" d="M 447.5,329.5 C 449.993,329.131 450.66,329.797 449.5,331.5C 448.167,331.5 447.5,330.833 447.5,329.5 Z"/></g>
<g><path style="opacity:1" fill="#f0c36f" d="M 487.5,331.5 C 488.833,331.5 490.167,331.5 491.5,331.5C 491.433,332.959 491.766,334.292 492.5,335.5C 490.205,334.864 488.539,333.531 487.5,331.5 Z"/></g>
<g><path style="opacity:0.02" fill="#f7dbc5" d="M 348.5,333.5 C 350.027,333.427 351.027,334.094 351.5,335.5C 349.973,335.573 348.973,334.906 348.5,333.5 Z"/></g>
<g><path style="opacity:0.039" fill="#ffe8c2" d="M 384.5,333.5 C 385.71,333.932 386.71,334.599 387.5,335.5C 385.821,335.715 384.821,335.048 384.5,333.5 Z"/></g>
<g><path style="opacity:0.686" fill="#dd905a" d="M 378.5,329.5 C 381.456,330.485 384.456,331.485 387.5,332.5C 388.127,333.417 388.461,334.417 388.5,335.5C 388.167,335.5 387.833,335.5 387.5,335.5C 386.71,334.599 385.71,333.932 384.5,333.5C 381.802,333.155 379.802,331.822 378.5,329.5 Z"/></g>
<g><path style="opacity:1" fill="#e2632c" d="M 331.5,327.5 C 332.833,327.5 334.167,327.5 335.5,327.5C 335.238,328.978 335.571,330.311 336.5,331.5C 338.219,328.952 339.552,329.285 340.5,332.5C 341.417,331.873 342.417,331.539 343.5,331.5C 345.514,331.392 347.18,332.058 348.5,333.5C 348.973,334.906 349.973,335.573 351.5,335.5C 351.973,336.906 352.973,337.573 354.5,337.5C 356.062,337.733 357.395,338.4 358.5,339.5C 358.973,340.906 359.973,341.573 361.5,341.5C 363.062,341.733 364.395,342.4 365.5,343.5C 367.113,345.956 369.113,347.956 371.5,349.5C 371.167,349.5 370.833,349.5 370.5,349.5C 368.821,349.285 367.821,349.952 367.5,351.5C 367.167,351.5 366.833,351.5 366.5,351.5C 364.821,351.285 363.821,351.952 363.5,353.5C 361.973,353.427 360.973,354.094 360.5,355.5C 359.395,356.6 358.062,357.267 356.5,357.5C 354.973,357.427 353.973,358.094 353.5,359.5C 353.167,359.5 352.833,359.5 352.5,359.5C 351.167,359.5 349.833,359.5 348.5,359.5C 347.325,359.719 346.325,359.386 345.5,358.5C 347.396,357.534 349.396,357.201 351.5,357.5C 351.5,356.167 351.5,354.833 351.5,353.5C 347.458,353.348 343.958,354.682 341,357.5C 339.97,357.164 339.47,356.497 339.5,355.5C 342.582,354.56 344.582,352.56 345.5,349.5C 343.164,345.829 339.831,343.829 335.5,343.5C 335.5,342.167 335.5,340.833 335.5,339.5C 334.022,339.762 332.689,339.429 331.5,338.5C 329.659,334.872 326.659,332.872 322.5,332.5C 326.083,331.55 329.083,329.883 331.5,327.5 Z"/></g>
<g><path style="opacity:0.545" fill="#e6b493" d="M 388.5,335.5 C 390.027,335.427 391.027,336.094 391.5,337.5C 389.973,337.573 388.973,336.906 388.5,335.5 Z"/></g>
<g><path style="opacity:0.051" fill="#fdf0c6" d="M 457.5,335.5 C 459.179,335.285 460.179,335.952 460.5,337.5C 458.973,337.573 457.973,336.906 457.5,335.5 Z"/></g>
<g><path style="opacity:0.161" fill="#f0c0af" d="M 351.5,335.5 C 353.027,335.427 354.027,336.094 354.5,337.5C 352.973,337.573 351.973,336.906 351.5,335.5 Z"/></g>
<g><path style="opacity:0.071" fill="#fbf2b8" d="M 516.5,335.5 C 516.5,336.833 515.833,337.5 514.5,337.5C 514.5,336.167 515.167,335.5 516.5,335.5 Z"/></g>
<g><path style="opacity:0.302" fill="#f6cfaa" d="M 391.5,337.5 C 392.167,337.5 392.833,337.5 393.5,337.5C 393.833,338.167 394.167,338.833 394.5,339.5C 392.973,339.573 391.973,338.906 391.5,337.5 Z"/></g>
<g><path style="opacity:0.161" fill="#ffe3c0" d="M 460.5,337.5 C 462.179,337.285 463.179,337.952 463.5,339.5C 462.29,339.068 461.29,338.401 460.5,337.5 Z"/></g>
<g><path style="opacity:0.231" fill="#f8e0b2" d="M 514.5,337.5 C 514.027,338.906 513.027,339.573 511.5,339.5C 511.821,337.952 512.821,337.285 514.5,337.5 Z"/></g>
<g><path style="opacity:0.02" fill="#f2cbbb" d="M 358.5,339.5 C 360.027,339.427 361.027,340.094 361.5,341.5C 359.973,341.573 358.973,340.906 358.5,339.5 Z"/></g>
<g><path style="opacity:1" fill="#edb07d" d="M 395.5,339.5 C 399.201,339.868 401.201,341.868 401.5,345.5C 401.975,348.082 401.308,350.082 399.5,351.5C 399.813,348.753 399.48,346.086 398.5,343.5C 397.066,342.412 396.066,341.078 395.5,339.5 Z"/></g>
<g><path style="opacity:0.031" fill="#f8f2be" d="M 508.5,339.5 C 509.167,339.5 509.833,339.5 510.5,339.5C 510.179,341.048 509.179,341.715 507.5,341.5C 507.833,340.833 508.167,340.167 508.5,339.5 Z"/></g>
<g><path style="opacity:1" fill="#ebb15f" d="M 464.5,339.5 C 466.736,340.546 468.736,341.879 470.5,343.5C 469.07,343.421 467.736,343.754 466.5,344.5C 465.438,342.978 464.771,341.312 464.5,339.5 Z"/></g>
<g><path style="opacity:0.275" fill="#e9d8a1" d="M 471.5,343.5 C 472.833,343.5 473.5,344.167 473.5,345.5C 473.5,344.167 472.833,343.5 471.5,343.5 Z"/></g>
<g><path style="opacity:1" fill="#eb9421" d="M 425.5,317.5 C 430.503,319.665 435.169,322.332 439.5,325.5C 439.973,326.906 440.973,327.573 442.5,327.5C 442.833,327.5 443.167,327.5 443.5,327.5C 443.973,328.906 444.973,329.573 446.5,329.5C 446.833,329.5 447.167,329.5 447.5,329.5C 447.5,330.833 448.167,331.5 449.5,331.5C 452.465,332.316 455.131,333.649 457.5,335.5C 457.973,336.906 458.973,337.573 460.5,337.5C 461.29,338.401 462.29,339.068 463.5,339.5C 463.833,339.5 464.167,339.5 464.5,339.5C 464.771,341.312 465.438,342.978 466.5,344.5C 467.736,343.754 469.07,343.421 470.5,343.5C 470.833,343.5 471.167,343.5 471.5,343.5C 471.5,344.833 472.167,345.5 473.5,345.5C 473.833,345.5 474.167,345.5 474.5,345.5C 474.973,346.906 475.973,347.573 477.5,347.5C 477.833,347.5 478.167,347.5 478.5,347.5C 478.525,350.179 479.858,351.512 482.5,351.5C 482.5,352.833 482.5,354.167 482.5,355.5C 480.973,355.427 479.973,356.094 479.5,357.5C 477.973,357.427 476.973,358.094 476.5,359.5C 476.167,359.5 475.833,359.5 475.5,359.5C 475.38,358.414 474.713,357.747 473.5,357.5C 469.888,360.217 466.888,359.551 464.5,355.5C 463.808,356.025 463.308,356.692 463,357.5C 460.198,355.609 459.032,352.942 459.5,349.5C 457.473,349.662 455.473,349.495 453.5,349C 450.714,346.979 451.047,345.479 454.5,344.5C 452.257,343.526 449.924,343.192 447.5,343.5C 447.305,339.804 445.638,336.971 442.5,335C 443.167,334.667 443.833,334.333 444.5,334C 441.118,333.824 437.785,333.324 434.5,332.5C 435.711,331.28 435.711,330.113 434.5,329C 435.759,328.077 437.092,327.243 438.5,326.5C 435.167,325.833 431.833,325.167 428.5,324.5C 426.747,322.49 425.747,320.157 425.5,317.5 Z"/></g>
<g><path style="opacity:0.141" fill="#f6e4ac" d="M 474.5,345.5 C 476.027,345.427 477.027,346.094 477.5,347.5C 475.973,347.573 474.973,346.906 474.5,345.5 Z"/></g>
<g><path style="opacity:1" fill="#e09d7b" d="M 365.5,343.5 C 367.359,344.594 369.359,345.427 371.5,346C 372.791,347.292 372.791,348.458 371.5,349.5C 369.113,347.956 367.113,345.956 365.5,343.5 Z"/></g>
<g><path style="opacity:0.02" fill="#f2cfb5" d="M 370.5,349.5 C 370.179,351.048 369.179,351.715 367.5,351.5C 367.821,349.952 368.821,349.285 370.5,349.5 Z"/></g>
<g><path style="opacity:0.616" fill="#d7977e" d="M 366.5,351.5 C 366.027,352.906 365.027,353.573 363.5,353.5C 363.821,351.952 364.821,351.285 366.5,351.5 Z"/></g>
<g><path style="opacity:1" fill="#e8bd6e" d="M 478.5,347.5 C 481.767,348.805 484.767,350.638 487.5,353C 486.1,354.438 484.433,355.271 482.5,355.5C 482.5,354.167 482.5,352.833 482.5,351.5C 479.858,351.512 478.525,350.179 478.5,347.5 Z"/></g>
<g><path style="opacity:0.039" fill="#f5d0be" d="M 363.5,353.5 C 363.027,354.906 362.027,355.573 360.5,355.5C 360.973,354.094 361.973,353.427 363.5,353.5 Z"/></g>
<g><path style="opacity:0.537" fill="#e4b794" d="M 399.5,352.5 C 399.5,354.5 398.5,355.5 396.5,355.5C 397.167,354.167 398.167,353.167 399.5,352.5 Z"/></g>
<g><path style="opacity:1" fill="#dc3837" d="M 257.5,319.5 C 257.833,319.5 258.167,319.5 258.5,319.5C 258.087,324.238 258.753,328.738 260.5,333C 260.294,334.366 259.96,335.699 259.5,337C 259.613,338.28 260.28,339.113 261.5,339.5C 261.205,338.174 261.705,336.841 263,335.5C 263.173,339.541 263.673,343.541 264.5,347.5C 265.167,342.167 265.833,336.833 266.5,331.5C 266.921,336.753 268.088,341.753 270,346.5C 273.25,348.339 276.083,350.672 278.5,353.5C 279.429,354.689 279.762,356.022 279.5,357.5C 282.167,358.366 284.833,359.366 287.5,360.5C 292.723,367.659 298.389,374.325 304.5,380.5C 306.655,381.001 308.322,382.001 309.5,383.5C 309.167,384.167 308.833,384.833 308.5,385.5C 306.973,385.427 305.973,386.094 305.5,387.5C 302.926,389.024 300.259,390.358 297.5,391.5C 295.975,389.964 293.975,388.964 291.5,388.5C 289.995,387.158 289.328,385.492 289.5,383.5C 286.102,383.82 282.768,383.487 279.5,382.5C 277.995,381.158 277.328,379.492 277.5,377.5C 272.124,376.452 269.124,373.118 268.5,367.5C 267.833,369.5 267.167,371.5 266.5,373.5C 262.89,366.39 261.223,359.057 261.5,351.5C 260.5,351.5 259.5,351.5 258.5,351.5C 258.5,356.833 258.5,362.167 258.5,367.5C 258.167,367.5 257.833,367.5 257.5,367.5C 257.5,351.5 257.5,335.5 257.5,319.5 Z"/></g>
<g><path style="opacity:0.475" fill="#edc19a" d="M 396.5,355.5 C 396.027,356.906 395.027,357.573 393.5,357.5C 393.973,356.094 394.973,355.427 396.5,355.5 Z"/></g>
<g><path style="opacity:0.263" fill="#f9e49a" d="M 482.5,355.5 C 482.179,357.048 481.179,357.715 479.5,357.5C 479.973,356.094 480.973,355.427 482.5,355.5 Z"/></g>
<g><path style="opacity:0.059" fill="#f4cdb8" d="M 356.5,357.5 C 356.027,358.906 355.027,359.573 353.5,359.5C 353.973,358.094 354.973,357.427 356.5,357.5 Z"/></g>
<g><path style="opacity:0.039" fill="#faecc1" d="M 479.5,357.5 C 479.027,358.906 478.027,359.573 476.5,359.5C 476.973,358.094 477.973,357.427 479.5,357.5 Z"/></g>
<g><path style="opacity:0.871" fill="#e39774" d="M 348.5,359.5 C 349.833,359.5 351.167,359.5 352.5,359.5C 350.097,362.209 347.097,364.209 343.5,365.5C 344.94,363.228 346.607,361.228 348.5,359.5 Z"/></g>
<g><path style="opacity:0.506" fill="#e4c1a0" d="M 389.5,359.5 C 389.027,360.906 388.027,361.573 386.5,361.5C 386.973,360.094 387.973,359.427 389.5,359.5 Z"/></g>
<g><path style="opacity:1" fill="#e67327" d="M 438.5,379.5 C 438.5,380.167 438.5,380.833 438.5,381.5C 438.167,381.5 437.833,381.5 437.5,381.5C 435.973,381.427 434.973,382.094 434.5,383.5C 432.821,383.285 431.821,383.952 431.5,385.5C 431.167,385.5 430.833,385.5 430.5,385.5C 428.973,385.427 427.973,386.094 427.5,387.5C 427.167,387.5 426.833,387.5 426.5,387.5C 425.5,387.833 424.833,388.5 424.5,389.5C 424.167,389.5 423.833,389.5 423.5,389.5C 421.49,385.015 418.49,384.348 414.5,387.5C 412.223,386.522 409.89,385.855 407.5,385.5C 407.762,384.022 407.429,382.689 406.5,381.5C 402.118,376.342 397.118,372.009 391.5,368.5C 392.167,367.833 392.833,367.167 393.5,366.5C 390.005,365.796 386.672,364.796 383.5,363.5C 383.973,362.094 384.973,361.427 386.5,361.5C 388.027,361.573 389.027,360.906 389.5,359.5C 390.605,358.4 391.938,357.733 393.5,357.5C 395.027,357.573 396.027,356.906 396.5,355.5C 398.5,355.5 399.5,354.5 399.5,352.5C 399.5,352.167 399.5,351.833 399.5,351.5C 401.308,350.082 401.975,348.082 401.5,345.5C 402.461,347.265 402.795,349.265 402.5,351.5C 403.5,351.5 404.5,351.5 405.5,351.5C 405.187,348.753 405.52,346.086 406.5,343.5C 407.167,346.833 407.833,350.167 408.5,353.5C 415.5,360.5 422.5,367.5 429.5,374.5C 431.5,375.333 433.5,376.167 435.5,377C 435.043,377.414 434.709,377.914 434.5,378.5C 435.689,379.429 437.022,379.762 438.5,379.5 Z"/></g>
<g><path style="opacity:0.161" fill="#f5e0aa" d="M 472.5,361.5 C 472.027,362.906 471.027,363.573 469.5,363.5C 469.973,362.094 470.973,361.427 472.5,361.5 Z"/></g>
<g><path style="opacity:0.102" fill="#f5d6b8" d="M 382.5,363.5 C 380.777,365.218 378.777,366.551 376.5,367.5C 377.708,364.956 379.708,363.622 382.5,363.5 Z"/></g>
<g><path style="opacity:0.039" fill="#f1e8b7" d="M 468.5,363.5 C 468.5,364.833 467.833,365.5 466.5,365.5C 466.5,364.167 467.167,363.5 468.5,363.5 Z"/></g>
<g><path style="opacity:0.11" fill="#e2ddbd" d="M 465.5,365.5 C 465.167,366.5 464.5,367.167 463.5,367.5C 463.5,366.167 464.167,365.5 465.5,365.5 Z"/></g>
<g><path style="opacity:0.776" fill="#e08a7b" d="M 342.5,365.5 C 340.664,367.588 338.331,368.921 335.5,369.5C 337.027,366.932 339.361,365.599 342.5,365.5 Z"/></g>
<g><path style="opacity:1" fill="#e46529" d="M 382.5,363.5 C 382.833,363.5 383.167,363.5 383.5,363.5C 386.672,364.796 390.005,365.796 393.5,366.5C 392.833,367.167 392.167,367.833 391.5,368.5C 397.118,372.009 402.118,376.342 406.5,381.5C 407.429,382.689 407.762,384.022 407.5,385.5C 409.89,385.855 412.223,386.522 414.5,387.5C 418.49,384.348 421.49,385.015 423.5,389.5C 420.446,389.354 418.446,390.687 417.5,393.5C 415.833,393.5 414.167,393.5 412.5,393.5C 411.739,392.609 410.739,391.942 409.5,391.5C 407.028,392.992 404.361,393.658 401.5,393.5C 401.762,394.978 401.429,396.311 400.5,397.5C 397.669,394.583 394.336,392.416 390.5,391C 390.833,390.667 391.167,390.333 391.5,390C 390.056,388.293 388.723,386.46 387.5,384.5C 383.5,383.833 379.5,383.167 375.5,382.5C 378.394,381.61 381.061,380.276 383.5,378.5C 379.929,377.732 376.429,376.732 373,375.5C 371.2,376.378 369.367,377.045 367.5,377.5C 367.5,376.167 367.5,374.833 367.5,373.5C 369.483,373.843 370.817,373.176 371.5,371.5C 371.833,370.833 372.167,370.167 372.5,369.5C 374.027,369.573 375.027,368.906 375.5,367.5C 375.833,367.5 376.167,367.5 376.5,367.5C 378.777,366.551 380.777,365.218 382.5,363.5 Z"/></g>
<g><path style="opacity:0.282" fill="#eacda4" d="M 461.5,367.5 C 461.5,368.833 460.833,369.5 459.5,369.5C 459.5,368.167 460.167,367.5 461.5,367.5 Z"/></g>
<g><path style="opacity:0.435" fill="#e7c9a7" d="M 375.5,367.5 C 375.027,368.906 374.027,369.573 372.5,369.5C 372.973,368.094 373.973,367.427 375.5,367.5 Z"/></g>
<g><path style="opacity:0.576" fill="#dfa68f" d="M 372.5,369.5 C 372.167,370.167 371.833,370.833 371.5,371.5C 370.833,371.5 370.167,371.5 369.5,371.5C 369.973,370.094 370.973,369.427 372.5,369.5 Z"/></g>
<g><path style="opacity:0.02" fill="#fae7bb" d="M 458.5,369.5 C 458.179,371.048 457.179,371.715 455.5,371.5C 455.973,370.094 456.973,369.427 458.5,369.5 Z"/></g>
<g><path style="opacity:0.443" fill="#dc8f84" d="M 335.5,369.5 C 333.882,371.316 331.882,372.649 329.5,373.5C 330.446,370.687 332.446,369.354 335.5,369.5 Z"/></g>
<g><path style="opacity:0.788" fill="#e27e72" d="M 328.5,373.5 C 326.664,375.588 324.331,376.921 321.5,377.5C 323.027,374.932 325.361,373.599 328.5,373.5 Z"/></g>
<g><path style="opacity:0.525" fill="#dea796" d="M 365.5,373.5 C 365.027,374.906 364.027,375.573 362.5,375.5C 362.973,374.094 363.973,373.427 365.5,373.5 Z"/></g>
<g><path style="opacity:0.694" fill="#ef5b71" d="M 257.5,367.5 C 257.833,367.5 258.167,367.5 258.5,367.5C 258.5,369.833 258.5,372.167 258.5,374.5C 258.5,386.833 258.5,399.167 258.5,411.5C 259.833,411.5 261.167,411.5 262.5,411.5C 261.167,412.933 259.667,414.267 258,415.5C 257.5,399.503 257.333,383.503 257.5,367.5 Z"/></g>
<g><path style="opacity:0.647" fill="#ce9076" d="M 362.5,375.5 C 362.027,376.906 361.027,377.573 359.5,377.5C 359.973,376.094 360.973,375.427 362.5,375.5 Z"/></g>
<g><path style="opacity:0.839" fill="#e8ad76" d="M 447.5,375.5 C 445.168,378.388 442.168,380.388 438.5,381.5C 438.5,380.833 438.5,380.167 438.5,379.5C 441.187,377.489 444.187,376.155 447.5,375.5 Z"/></g>
<g><path style="opacity:1" fill="#de685c" d="M 315.5,377.5 C 317.5,377.5 319.5,377.5 321.5,377.5C 317.43,380.564 313.097,383.231 308.5,385.5C 308.833,384.833 309.167,384.167 309.5,383.5C 310.467,382.194 311.801,381.527 313.5,381.5C 313.527,379.801 314.194,378.467 315.5,377.5 Z"/></g>
<g><path style="opacity:0.576" fill="#daae92" d="M 358.5,377.5 C 358.167,378.5 357.5,379.167 356.5,379.5C 356.167,379.5 355.833,379.5 355.5,379.5C 355.973,378.094 356.973,377.427 358.5,377.5 Z"/></g>
<g><path style="opacity:1" fill="#e15a2d" d="M 369.5,371.5 C 370.167,371.5 370.833,371.5 371.5,371.5C 370.817,373.176 369.483,373.843 367.5,373.5C 367.5,374.833 367.5,376.167 367.5,377.5C 369.367,377.045 371.2,376.378 373,375.5C 376.429,376.732 379.929,377.732 383.5,378.5C 381.061,380.276 378.394,381.61 375.5,382.5C 379.5,383.167 383.5,383.833 387.5,384.5C 388.723,386.46 390.056,388.293 391.5,390C 391.167,390.333 390.833,390.667 390.5,391C 394.336,392.416 397.669,394.583 400.5,397.5C 401.429,396.311 401.762,394.978 401.5,393.5C 404.361,393.658 407.028,392.992 409.5,391.5C 410.739,391.942 411.739,392.609 412.5,393.5C 412.267,395.062 411.6,396.395 410.5,397.5C 410.167,397.5 409.833,397.5 409.5,397.5C 408.5,397.833 407.833,398.5 407.5,399.5C 407.167,399.5 406.833,399.5 406.5,399.5C 404.973,399.427 403.973,400.094 403.5,401.5C 403.167,401.5 402.833,401.5 402.5,401.5C 400.821,401.285 399.821,401.952 399.5,403.5C 397.973,403.427 396.973,404.094 396.5,405.5C 394.973,405.427 393.973,406.094 393.5,407.5C 392.18,408.942 390.514,409.608 388.5,409.5C 387.167,409.5 385.833,409.5 384.5,409.5C 381.979,409.44 379.646,410.106 377.5,411.5C 376.833,411.167 376.167,410.833 375.5,410.5C 376.337,408.156 377.671,406.156 379.5,404.5C 378.833,404.167 378.167,403.833 377.5,403.5C 374.608,404.723 371.774,406.057 369,407.5C 368.5,407.167 368,406.833 367.5,406.5C 368.833,405.167 370.167,403.833 371.5,402.5C 370.311,401.571 368.978,401.238 367.5,401.5C 367.415,396.083 364.748,392.75 359.5,391.5C 359.334,388.832 358.334,386.498 356.5,384.5C 357.535,382.872 357.535,381.205 356.5,379.5C 357.5,379.167 358.167,378.5 358.5,377.5C 358.833,377.5 359.167,377.5 359.5,377.5C 361.027,377.573 362.027,376.906 362.5,375.5C 364.027,375.573 365.027,374.906 365.5,373.5C 366.514,372.326 367.847,371.66 369.5,371.5 Z"/></g>
<g><path style="opacity:0.443" fill="#eaaba7" d="M 351.5,381.5 C 351.027,382.906 350.027,383.573 348.5,383.5C 348.973,382.094 349.973,381.427 351.5,381.5 Z"/></g>
<g><path style="opacity:0.122" fill="#f4d0ad" d="M 437.5,381.5 C 437.027,382.906 436.027,383.573 434.5,383.5C 434.973,382.094 435.973,381.427 437.5,381.5 Z"/></g>
<g><path style="opacity:0.251" fill="#d8c0af" d="M 434.5,383.5 C 433.71,384.401 432.71,385.068 431.5,385.5C 431.821,383.952 432.821,383.285 434.5,383.5 Z"/></g>
<g><path style="opacity:0.627" fill="#d49483" d="M 348.5,383.5 C 348.027,384.906 347.027,385.573 345.5,385.5C 345.973,384.094 346.973,383.427 348.5,383.5 Z"/></g>
<g><path style="opacity:1" fill="#d92f39" d="M 297.5,391.5 C 295.011,391.241 293.344,392.241 292.5,394.5C 292.158,395.338 291.492,395.672 290.5,395.5C 288.973,395.427 287.973,396.094 287.5,397.5C 286.29,397.932 285.29,398.599 284.5,399.5C 284.167,399.5 283.833,399.5 283.5,399.5C 281.011,399.241 279.344,400.241 278.5,402.5C 278.158,403.338 277.492,403.672 276.5,403.5C 275.833,400.833 275.167,398.167 274.5,395.5C 275.5,395.5 276.5,395.5 277.5,395.5C 277.5,394.167 277.5,392.833 277.5,391.5C 275.396,391.799 273.396,391.466 271.5,390.5C 272.167,389.833 272.833,389.167 273.5,388.5C 271.163,387.483 269.496,385.816 268.5,383.5C 267.371,386.987 266.704,390.321 266.5,393.5C 264.483,390.45 263.483,387.117 263.5,383.5C 262.167,383.5 260.833,383.5 259.5,383.5C 259.81,380.287 259.477,377.287 258.5,374.5C 258.5,372.167 258.5,369.833 258.5,367.5C 258.5,362.167 258.5,356.833 258.5,351.5C 259.5,351.5 260.5,351.5 261.5,351.5C 261.223,359.057 262.89,366.39 266.5,373.5C 267.167,371.5 267.833,369.5 268.5,367.5C 269.124,373.118 272.124,376.452 277.5,377.5C 277.328,379.492 277.995,381.158 279.5,382.5C 282.768,383.487 286.102,383.82 289.5,383.5C 289.328,385.492 289.995,387.158 291.5,388.5C 293.975,388.964 295.975,389.964 297.5,391.5 Z"/></g>
<g><path style="opacity:0.031" fill="#f3d3c5" d="M 308.5,385.5 C 308.027,386.906 307.027,387.573 305.5,387.5C 305.973,386.094 306.973,385.427 308.5,385.5 Z"/></g>
<g><path style="opacity:0.486" fill="#deb3a0" d="M 344.5,385.5 C 344.027,386.906 343.027,387.573 341.5,387.5C 341.973,386.094 342.973,385.427 344.5,385.5 Z"/></g>
<g><path style="opacity:0.11" fill="#f2cead" d="M 430.5,385.5 C 430.027,386.906 429.027,387.573 427.5,387.5C 427.973,386.094 428.973,385.427 430.5,385.5 Z"/></g>
<g><path style="opacity:0.667" fill="#d39083" d="M 341.5,387.5 C 341.027,388.906 340.027,389.573 338.5,389.5C 338.973,388.094 339.973,387.427 341.5,387.5 Z"/></g>
<g><path style="opacity:0.031" fill="#f3d9bb" d="M 426.5,387.5 C 426.5,388.833 425.833,389.5 424.5,389.5C 424.833,388.5 425.5,387.833 426.5,387.5 Z"/></g>
<g><path style="opacity:0.416" fill="#e5ab86" d="M 423.5,389.5 C 421.853,391.326 419.853,392.66 417.5,393.5C 418.446,390.687 420.446,389.354 423.5,389.5 Z"/></g>
<g><path style="opacity:0.796" fill="#df837d" d="M 297.5,391.5 C 296.341,393.25 294.674,394.25 292.5,394.5C 293.344,392.241 295.011,391.241 297.5,391.5 Z"/></g>
<g><path style="opacity:0.627" fill="#dc938a" d="M 334.5,391.5 C 334.027,392.906 333.027,393.573 331.5,393.5C 331.973,392.094 332.973,391.427 334.5,391.5 Z"/></g>
<g><path style="opacity:0.788" fill="#eca484" d="M 412.5,393.5 C 414.167,393.5 415.833,393.5 417.5,393.5C 415.337,395.083 413.004,396.416 410.5,397.5C 411.6,396.395 412.267,395.062 412.5,393.5 Z"/></g>
<g><path style="opacity:0.082" fill="#ecb3ad" d="M 290.5,395.5 C 290.027,396.906 289.027,397.573 287.5,397.5C 287.973,396.094 288.973,395.427 290.5,395.5 Z"/></g>
<g><path style="opacity:0.616" fill="#e08d91" d="M 327.5,395.5 C 327.027,396.906 326.027,397.573 324.5,397.5C 324.973,396.094 325.973,395.427 327.5,395.5 Z"/></g>
<g><path style="opacity:0.012" fill="#ffe2d3" d="M 287.5,397.5 C 287.179,399.048 286.179,399.715 284.5,399.5C 285.29,398.599 286.29,397.932 287.5,397.5 Z"/></g>
<g><path style="opacity:0.039" fill="#f6e3c4" d="M 409.5,397.5 C 409.5,398.833 408.833,399.5 407.5,399.5C 407.833,398.5 408.5,397.833 409.5,397.5 Z"/></g>
<g><path style="opacity:1" fill="#dc3d35" d="M 356.5,425.5 C 354.575,427.239 352.909,429.239 351.5,431.5C 351.167,431.5 350.833,431.5 350.5,431.5C 349.5,431.5 348.5,431.5 347.5,431.5C 344.574,428.683 341.574,425.849 338.5,423C 335.626,422.262 332.96,421.096 330.5,419.5C 330.167,418.833 329.833,418.167 329.5,417.5C 330.547,415.944 331.214,414.277 331.5,412.5C 329.738,412.357 328.071,412.691 326.5,413.5C 325.833,412.167 325.167,410.833 324.5,409.5C 322.236,410.304 320.236,409.637 318.5,407.5C 316.477,409.173 314.144,409.84 311.5,409.5C 311.5,408.167 311.5,406.833 311.5,405.5C 315.459,405.853 318.126,404.187 319.5,400.5C 320.899,399.11 322.566,398.11 324.5,397.5C 326.027,397.573 327.027,396.906 327.5,395.5C 329.92,395.292 332.253,395.626 334.5,396.5C 335.167,394.833 335.833,393.167 336.5,391.5C 338.577,392.988 339.577,394.988 339.5,397.5C 340.833,397.5 342.167,397.5 343.5,397.5C 343.528,401.719 345.195,405.219 348.5,408C 349.448,408.483 350.448,408.649 351.5,408.5C 354.106,412.709 357.106,416.709 360.5,420.5C 358.955,421.452 357.288,421.785 355.5,421.5C 355.232,423.099 355.566,424.432 356.5,425.5 Z"/></g>
<g><path style="opacity:0.859" fill="#db777c" d="M 283.5,399.5 C 282.341,401.25 280.674,402.25 278.5,402.5C 279.344,400.241 281.011,399.241 283.5,399.5 Z"/></g>
<g><path style="opacity:0.039" fill="#f6d6bb" d="M 406.5,399.5 C 406.027,400.906 405.027,401.573 403.5,401.5C 403.973,400.094 404.973,399.427 406.5,399.5 Z"/></g>
<g><path style="opacity:1" fill="#d7233c" d="M 258.5,374.5 C 259.477,377.287 259.81,380.287 259.5,383.5C 260.833,383.5 262.167,383.5 263.5,383.5C 263.483,387.117 264.483,390.45 266.5,393.5C 266.704,390.321 267.371,386.987 268.5,383.5C 269.496,385.816 271.163,387.483 273.5,388.5C 272.833,389.167 272.167,389.833 271.5,390.5C 273.396,391.466 275.396,391.799 277.5,391.5C 277.5,392.833 277.5,394.167 277.5,395.5C 276.5,395.5 275.5,395.5 274.5,395.5C 275.167,398.167 275.833,400.833 276.5,403.5C 273.418,404.13 270.418,405.13 267.5,406.5C 266.147,407.524 265.48,408.857 265.5,410.5C 264.508,410.328 263.842,410.662 263.5,411.5C 263.167,411.5 262.833,411.5 262.5,411.5C 261.167,411.5 259.833,411.5 258.5,411.5C 258.5,399.167 258.5,386.833 258.5,374.5 Z"/></g>
<g><path style="opacity:1" fill="#d39b85" d="M 402.5,401.5 C 402.179,403.048 401.179,403.715 399.5,403.5C 399.821,401.952 400.821,401.285 402.5,401.5 Z"/></g>
<g><path style="opacity:1" fill="#df4c31" d="M 355.5,379.5 C 355.833,379.5 356.167,379.5 356.5,379.5C 357.535,381.205 357.535,382.872 356.5,384.5C 358.334,386.498 359.334,388.832 359.5,391.5C 364.748,392.75 367.415,396.083 367.5,401.5C 368.978,401.238 370.311,401.571 371.5,402.5C 370.167,403.833 368.833,405.167 367.5,406.5C 368,406.833 368.5,407.167 369,407.5C 371.774,406.057 374.608,404.723 377.5,403.5C 378.167,403.833 378.833,404.167 379.5,404.5C 377.671,406.156 376.337,408.156 375.5,410.5C 376.167,410.833 376.833,411.167 377.5,411.5C 379.646,410.106 381.979,409.44 384.5,409.5C 382.575,411.239 380.909,413.239 379.5,415.5C 379.167,415.5 378.833,415.5 378.5,415.5C 376.973,415.427 375.973,416.094 375.5,417.5C 373.973,417.427 372.973,418.094 372.5,419.5C 372.167,419.5 371.833,419.5 371.5,419.5C 368.657,419.917 365.99,420.917 363.5,422.5C 362.388,423.265 361.721,424.265 361.5,425.5C 359.833,425.5 358.167,425.5 356.5,425.5C 355.566,424.432 355.232,423.099 355.5,421.5C 357.288,421.785 358.955,421.452 360.5,420.5C 357.106,416.709 354.106,412.709 351.5,408.5C 350.448,408.649 349.448,408.483 348.5,408C 345.195,405.219 343.528,401.719 343.5,397.5C 342.167,397.5 340.833,397.5 339.5,397.5C 339.577,394.988 338.577,392.988 336.5,391.5C 335.833,393.167 335.167,394.833 334.5,396.5C 332.253,395.626 329.92,395.292 327.5,395.5C 328.514,394.326 329.847,393.66 331.5,393.5C 333.027,393.573 334.027,392.906 334.5,391.5C 335.514,390.326 336.847,389.66 338.5,389.5C 340.027,389.573 341.027,388.906 341.5,387.5C 343.027,387.573 344.027,386.906 344.5,385.5C 344.833,385.5 345.167,385.5 345.5,385.5C 347.027,385.573 348.027,384.906 348.5,383.5C 350.027,383.573 351.027,382.906 351.5,381.5C 352.605,380.4 353.938,379.733 355.5,379.5 Z"/></g>
<g><path style="opacity:1" fill="#d55252" d="M 319.5,400.5 C 318.126,404.187 315.459,405.853 311.5,405.5C 311.5,406.833 311.5,408.167 311.5,409.5C 310.167,408.833 308.833,408.167 307.5,407.5C 310.976,404.377 314.976,402.043 319.5,400.5 Z"/></g>
<g><path style="opacity:0.161" fill="#f8c8a8" d="M 399.5,403.5 C 399.027,404.906 398.027,405.573 396.5,405.5C 396.973,404.094 397.973,403.427 399.5,403.5 Z"/></g>
<g><path style="opacity:1" fill="#d65867" d="M 276.5,403.5 C 273.039,406.069 269.372,408.403 265.5,410.5C 265.48,408.857 266.147,407.524 267.5,406.5C 270.418,405.13 273.418,404.13 276.5,403.5 Z"/></g>
<g><path style="opacity:0.059" fill="#f5d8bf" d="M 396.5,405.5 C 396.027,406.906 395.027,407.573 393.5,407.5C 393.973,406.094 394.973,405.427 396.5,405.5 Z"/></g>
<g><path style="opacity:0.525" fill="#db9e9c" d="M 306.5,407.5 C 306.167,408.167 305.833,408.833 305.5,409.5C 304.833,409.5 304.167,409.5 303.5,409.5C 303.973,408.094 304.973,407.427 306.5,407.5 Z"/></g>
<g><path style="opacity:1" fill="#db3639" d="M 306.5,407.5 C 306.833,407.5 307.167,407.5 307.5,407.5C 308.833,408.167 310.167,408.833 311.5,409.5C 314.144,409.84 316.477,409.173 318.5,407.5C 320.236,409.637 322.236,410.304 324.5,409.5C 325.167,410.833 325.833,412.167 326.5,413.5C 328.071,412.691 329.738,412.357 331.5,412.5C 331.214,414.277 330.547,415.944 329.5,417.5C 329.833,418.167 330.167,418.833 330.5,419.5C 332.96,421.096 335.626,422.262 338.5,423C 341.574,425.849 344.574,428.683 347.5,431.5C 347.5,432.167 347.5,432.833 347.5,433.5C 344.454,435.858 341.121,437.858 337.5,439.5C 336.833,439.5 336.167,439.5 335.5,439.5C 333.801,439.527 332.467,440.194 331.5,441.5C 330.032,439.084 329.365,436.417 329.5,433.5C 326.068,433.243 322.734,432.576 319.5,431.5C 319.5,429.5 319.5,427.5 319.5,425.5C 315.758,424.782 312.758,422.782 310.5,419.5C 309.336,415.839 307.67,412.506 305.5,409.5C 305.833,408.833 306.167,408.167 306.5,407.5 Z"/></g>
<g><path style="opacity:0.031" fill="#f8cfdd" d="M 263.5,411.5 C 263.842,410.662 264.508,410.328 265.5,410.5C 265.591,412.698 264.925,413.031 263.5,411.5 Z"/></g>
<g><path style="opacity:0.839" fill="#e3947b" d="M 384.5,409.5 C 385.833,409.5 387.167,409.5 388.5,409.5C 386.079,412.222 383.079,414.222 379.5,415.5C 380.909,413.239 382.575,411.239 384.5,409.5 Z"/></g>
<g><path style="opacity:0.706" fill="#cd7c87" d="M 296.5,413.5 C 296.027,414.906 295.027,415.573 293.5,415.5C 293.973,414.094 294.973,413.427 296.5,413.5 Z"/></g>
<g><path style="opacity:0.18" fill="#f2b8a2" d="M 378.5,415.5 C 378.027,416.906 377.027,417.573 375.5,417.5C 375.973,416.094 376.973,415.427 378.5,415.5 Z"/></g>
<g><path style="opacity:0.039" fill="#f1cdc0" d="M 375.5,417.5 C 375.027,418.906 374.027,419.573 372.5,419.5C 372.973,418.094 373.973,417.427 375.5,417.5 Z"/></g>
<g><path style="opacity:1" fill="#d92a3a" d="M 303.5,409.5 C 304.167,409.5 304.833,409.5 305.5,409.5C 307.67,412.506 309.336,415.839 310.5,419.5C 312.758,422.782 315.758,424.782 319.5,425.5C 319.5,427.5 319.5,429.5 319.5,431.5C 322.734,432.576 326.068,433.243 329.5,433.5C 329.365,436.417 330.032,439.084 331.5,441.5C 329.047,442.817 326.38,443.65 323.5,444C 322.663,445.011 322.33,446.178 322.5,447.5C 320.821,447.285 319.821,447.952 319.5,449.5C 319.167,449.5 318.833,449.5 318.5,449.5C 318.082,448.778 317.416,448.278 316.5,448C 317.276,446.23 317.11,444.397 316,442.5C 310.489,440.786 307.322,437.119 306.5,431.5C 300.849,430.77 298.849,427.77 300.5,422.5C 301.325,421.614 302.325,421.281 303.5,421.5C 303.5,420.167 303.5,418.833 303.5,417.5C 302.448,417.351 301.448,417.517 300.5,418C 300.833,418.333 301.167,418.667 301.5,419C 296.185,422.889 290.185,424.389 283.5,423.5C 284.5,422.167 285.5,420.833 286.5,419.5C 288.336,417.412 290.669,416.079 293.5,415.5C 295.027,415.573 296.027,414.906 296.5,413.5C 298.663,411.917 300.996,410.584 303.5,409.5 Z"/></g>
<g><path style="opacity:0.808" fill="#da7c6c" d="M 371.5,419.5 C 368.506,422 365.173,424 361.5,425.5C 361.721,424.265 362.388,423.265 363.5,422.5C 365.99,420.917 368.657,419.917 371.5,419.5 Z"/></g>
<g><path style="opacity:1" fill="#d24d59" d="M 286.5,419.5 C 285.5,420.833 284.5,422.167 283.5,423.5C 282.368,424.354 281.035,424.354 279.5,423.5C 281.336,421.412 283.669,420.079 286.5,419.5 Z"/></g>
<g><path style="opacity:1" fill="#cd4c5d" d="M 279.5,423.5 C 279.5,424.167 279.5,424.833 279.5,425.5C 277.409,426.865 275.076,427.532 272.5,427.5C 274.336,425.412 276.669,424.079 279.5,423.5 Z"/></g>
<g><path style="opacity:0.871" fill="#db7371" d="M 356.5,425.5 C 358.167,425.5 359.833,425.5 361.5,425.5C 358.434,427.89 355.1,429.89 351.5,431.5C 352.909,429.239 354.575,427.239 356.5,425.5 Z"/></g>
<g><path style="opacity:0.788" fill="#c07e88" d="M 271.5,427.5 C 271.179,429.048 270.179,429.715 268.5,429.5C 269.29,428.599 270.29,427.932 271.5,427.5 Z"/></g>
<g><path style="opacity:1" fill="#d71f3d" d="M 318.5,449.5 C 316.381,449.468 315.048,450.468 314.5,452.5C 314.158,453.338 313.492,453.672 312.5,453.5C 308.727,454.554 305.06,455.887 301.5,457.5C 301.721,456.265 302.388,455.265 303.5,454.5C 299.065,451.949 294.399,449.949 289.5,448.5C 290.689,447.571 292.022,447.238 293.5,447.5C 293.5,443.5 291.5,441.5 287.5,441.5C 287.5,440.167 287.5,438.833 287.5,437.5C 282.154,437.131 280.82,434.798 283.5,430.5C 282.009,429.756 280.509,429.09 279,428.5C 278.53,427.423 278.697,426.423 279.5,425.5C 279.5,424.833 279.5,424.167 279.5,423.5C 281.035,424.354 282.368,424.354 283.5,423.5C 290.185,424.389 296.185,422.889 301.5,419C 301.167,418.667 300.833,418.333 300.5,418C 301.448,417.517 302.448,417.351 303.5,417.5C 303.5,418.833 303.5,420.167 303.5,421.5C 302.325,421.281 301.325,421.614 300.5,422.5C 298.849,427.77 300.849,430.77 306.5,431.5C 307.322,437.119 310.489,440.786 316,442.5C 317.11,444.397 317.276,446.23 316.5,448C 317.416,448.278 318.082,448.778 318.5,449.5 Z"/></g>
<g><path style="opacity:0.655" fill="#d6889c" d="M 268.5,429.5 C 268.027,430.906 267.027,431.573 265.5,431.5C 265.973,430.094 266.973,429.427 268.5,429.5 Z"/></g>
<g><path style="opacity:1" fill="#d61440" d="M 279.5,425.5 C 278.697,426.423 278.53,427.423 279,428.5C 280.509,429.09 282.009,429.756 283.5,430.5C 280.82,434.798 282.154,437.131 287.5,437.5C 287.5,438.833 287.5,440.167 287.5,441.5C 291.5,441.5 293.5,443.5 293.5,447.5C 292.022,447.238 290.689,447.571 289.5,448.5C 294.399,449.949 299.065,451.949 303.5,454.5C 302.388,455.265 301.721,456.265 301.5,457.5C 297.468,461.069 292.801,463.735 287.5,465.5C 284.482,465.665 281.482,465.498 278.5,465C 279.623,463.956 280.956,463.29 282.5,463C 281.328,461.132 281.495,459.298 283,457.5C 284.087,459.932 284.587,459.598 284.5,456.5C 283.07,456.421 281.736,456.754 280.5,457.5C 279.833,456.167 279.167,454.833 278.5,453.5C 278.738,455.565 278.238,457.565 277,459.5C 275.985,456.79 274.485,454.457 272.5,452.5C 271.074,459.84 268.074,460.84 263.5,455.5C 261.615,452.785 261.448,450.119 263,447.5C 263.308,448.308 263.808,448.975 264.5,449.5C 265.842,447.995 267.508,447.328 269.5,447.5C 269.083,444.657 268.083,441.99 266.5,439.5C 264.999,440.752 263.332,441.752 261.5,442.5C 266.363,444.675 265.697,445.675 259.5,445.5C 260.053,443.061 260.053,440.727 259.5,438.5C 259.833,438.167 260.167,437.833 260.5,437.5C 261.167,438.167 261.833,438.833 262.5,439.5C 264.083,437.01 265.083,434.343 265.5,431.5C 267.027,431.573 268.027,430.906 268.5,429.5C 270.179,429.715 271.179,429.048 271.5,427.5C 271.833,427.5 272.167,427.5 272.5,427.5C 275.076,427.532 277.409,426.865 279.5,425.5 Z"/></g>
<g><path style="opacity:0.667" fill="#c97779" d="M 347.5,431.5 C 348.5,431.5 349.5,431.5 350.5,431.5C 350.027,432.906 349.027,433.573 347.5,433.5C 347.5,432.833 347.5,432.167 347.5,431.5 Z"/></g>
<g><path style="opacity:0.02" fill="#f8cec9" d="M 335.5,439.5 C 336.167,439.5 336.833,439.5 337.5,439.5C 337.027,440.906 336.027,441.573 334.5,441.5C 334.833,440.833 335.167,440.167 335.5,439.5 Z"/></g>
<g><path style="opacity:1" fill="#d85763" d="M 335.5,439.5 C 335.167,440.167 334.833,440.833 334.5,441.5C 329.632,444.434 324.632,447.1 319.5,449.5C 319.821,447.952 320.821,447.285 322.5,447.5C 322.33,446.178 322.663,445.011 323.5,444C 326.38,443.65 329.047,442.817 331.5,441.5C 332.467,440.194 333.801,439.527 335.5,439.5 Z"/></g>
<g><path style="opacity:0.949" fill="#d56e76" d="M 318.5,449.5 C 318.833,449.5 319.167,449.5 319.5,449.5C 318.341,451.25 316.674,452.25 314.5,452.5C 315.048,450.468 316.381,449.468 318.5,449.5 Z"/></g>
<g><path style="opacity:1" fill="#d22049" d="M 265.5,431.5 C 265.083,434.343 264.083,437.01 262.5,439.5C 261.833,438.833 261.167,438.167 260.5,437.5C 260.167,437.833 259.833,438.167 259.5,438.5C 260.053,440.727 260.053,443.061 259.5,445.5C 265.697,445.675 266.363,444.675 261.5,442.5C 263.332,441.752 264.999,440.752 266.5,439.5C 268.083,441.99 269.083,444.657 269.5,447.5C 267.508,447.328 265.842,447.995 264.5,449.5C 263.808,448.975 263.308,448.308 263,447.5C 261.448,450.119 261.615,452.785 263.5,455.5C 268.074,460.84 271.074,459.84 272.5,452.5C 274.485,454.457 275.985,456.79 277,459.5C 278.238,457.565 278.738,455.565 278.5,453.5C 279.167,454.833 279.833,456.167 280.5,457.5C 281.736,456.754 283.07,456.421 284.5,456.5C 284.587,459.598 284.087,459.932 283,457.5C 281.495,459.298 281.328,461.132 282.5,463C 280.956,463.29 279.623,463.956 278.5,465C 281.482,465.498 284.482,465.665 287.5,465.5C 283.702,466.483 279.702,466.817 275.5,466.5C 261.054,461.183 255.22,450.85 258,435.5C 260.475,434.014 262.975,432.681 265.5,431.5 Z"/></g>
<g><path style="opacity:1" fill="#d85c71" d="M 312.5,453.5 C 305.483,458.998 297.816,463.498 289.5,467C 284.648,467.815 279.981,467.648 275.5,466.5C 279.702,466.817 283.702,466.483 287.5,465.5C 292.801,463.735 297.468,461.069 301.5,457.5C 305.06,455.887 308.727,454.554 312.5,453.5 Z"/></g>
</svg>
